<?xml version="1.0" encoding="utf-8"?>
<!DOCTYPE svg PUBLIC "-//W3C//DTD SVG 1.1//EN" "http://www.w3.org/Graphics/SVG/1.1/DTD/svg11.dtd">
<svg version="1.1" xmlns="http://www.w3.org/2000/svg" width="1152" height="422" viewBox="0 0 1152 422">
<g>
<rect fill="#F9F2DE" width="1152" height="422" />
</g>
<g transform="scale(0.97,0.97)">
<g transform="translate(37,45.75)">
    <path stroke="none" fill="#CC3300" d="M256.8 37.1 L258.15 38.7 264.4 49.85 259.2 58.25 252.9 63.5 249.75 67.15 248.8 68.7 248.2 68.85 247.65 69.1 246.6 69.45 244.85 69.7 244.55 69.7 244.3 69.75 243.95 69.7 243.65 69.7 241.9 69.45 239.35 68.7 230.95 67.6 219.5 64.5 206.95 62.4 206.35 62.55 206.2 62.55 205.85 62.7 204.75 63.05 200.45 63.85 199.6 63.85 199.35 63.9 198.3 63.95 193.75 63.55 189.2 62.4 184.65 62.55 179.7 63.35 177.65 64 174.95 65.3 174.2 65.8 173.55 66.4 172.45 67.6 172.45 91.7 171.45 97.35 171.45 97.95 172.45 104.2 172.3 105.25 172.3 105.65 171.85 108.35 171.6 108.85 171.45 109.45 170.9 110.15 170.25 111.55 169.95 112.85 170.1 114.1 170.35 114.7 172.3 116.9 174.7 118.9 178.7 121.4 181.8 122.85 187.2 124.6 195.45 126.15 221.6 136.65 227.85 144.95 221.8 155.65 219 158.85 217.65 159.9 203.8 169.05 191.25 176.35 191.5 176.95 192.4 178.05 193.6 179 194.4 179.5 196.2 180.25 198.3 180.8 206.95 181.55 208 180.55 224.7 182.6 244.6 182.6 250.9 185.2 251.9 185.75 252.4 185.75 253.7 185.95 255.2 186.5 263.4 189.9 265.95 192.2 266.85 192.8 267.2 193 267.55 193.05 268.45 193.6 269.25 194.3 270.4 195.95 270.65 196.85 270.85 197.95 270.75 200.35 267.55 208.75 256.1 216.05 252.3 217.6 252.05 217.6 251.3 217.75 249.45 218.05 248.5 218.1 247.4 218.05 244.45 217.6 240.4 216.05 221.6 214 211.15 209.8 198.1 207.5 196.75 207.15 194.4 205.6 191.5 207.15 189.2 207.7 188.15 205.6 177.55 208.15 176.05 209 174.95 210.1 174.75 210.55 174.45 211.6 174.3 212.7 174.4 213.3 174.55 214 176.6 215 175.25 217.6 174.55 219.9 174.4 222.1 174.25 222.45 174.2 222.45 174.2 222.85 174.1 223.2 174.05 223.2 174.05 223.6 173.3 224.75 173.1 224.9 172.9 225.15 172.45 225.5 172.4 225.6 172.1 232.6 171.95 233.45 171.9 233.5 171.9 234.35 171.65 235.05 171.55 235.7 171.2 236.75 170.8 237.55 170.55 237.75 170.35 238 167.25 250.55 165.1 255.75 164.55 255.55 164 255.45 163.35 255.55 161.7 256.25 161.4 256.55 161 256.75 159.95 257.9 158.55 260.5 158.1 260.95 157.85 261.15 157.7 261.35 156.8 262.1 153.6 268.85 149.45 274.6 144.15 279.25 138 282.95 137.05 284.55 135.3 286.35 129.6 290.3 129 289.75 128.55 289.45 127.95 289.3 127.5 289.2 109.7 298.65 108.95 300.05 107.9 301.25 107.1 301.75 106.9 301.8 106.35 302.15 104.55 302.85 103.95 302.85 102.6 303.1 101 303.55 98.2 304.9 76.25 301.8 73.45 302.25 70.95 302.4 68.6 302 66.6 301.2 64.7 299.9 63.1 298.2 61.7 296 60.65 293.4 60.05 293.6 59.55 293.65 59 293.6 58.5 293.4 57.45 292.6 55.25 289.95 54 289 53.3 288.55 51.9 288.2 51.2 288.2 47 281.9 44.7 280.65 43.1 279.25 42.5 278.4 42.1 277.55 41.85 276.6 41.8 275.65 36.3 272.95 33.75 270.8 31.9 268.5 31.35 267.25 31.45 266.25 31.6 265.45 31.9 264.7 32.35 264.15 33.65 263.1 34.65 262 35.25 260.95 35.25 260.8 35.45 260.45 35.5 259.95 36.2 260.45 38.4 261.55 39 261.75 39.15 261.75 39.25 261.8 40.15 262 43.35 262.3 44.7 262.8 45.25 263.2 45.65 263.6 46 264.15 55.4 264.15 63.75 263.1 75.25 264.15 86.75 264.15 90.3 262.8 94.2 262.1 95.1 262.1 98 261.55 102.4 259.95 104.8 260.65 107.05 260.7 108.05 260.5 109 260.15 109.05 260 Q109.5 259.8 109.9 259.55 L110.3 259.2 119.15 253.7 125.4 248.45 129.6 242.2 132.75 240.5 133.3 240 133.75 239.6 133.85 239.6 134.8 238.75 134.9 238.5 135.4 237.75 135.8 236.85 135.8 236.55 135.85 236.3 135.9 235.8 135.9 235.35 135.85 234.9 142.15 227.55 147.35 220.25 147.35 211.85 144.25 205.6 131.25 206.3 128.35 207.15 127.5 207.7 126.45 205.6 122.75 207.15 120.7 207.6 119.05 207.75 116.45 208.2 114.5 208.9 114.1 209.15 113.25 209.45 112.35 209.45 112.35 209.5 111.55 209.5 110.55 209.25 109.6 208.9 109.4 208.8 109.05 208.65 107.65 207.7 106.85 207.4 106 207.35 104.45 207.4 103.65 207.55 102.95 207.85 101.4 208.75 93 210.85 84.65 211.85 82 213.45 80.45 214 79.65 214 78.35 214.25 77.25 214.7 76.5 215.55 76.25 216.05 61.65 218.2 61.6 218.3 61.45 218.4 60.95 218.7 59 219.4 51.2 221.3 49 218 45.45 210.95 44.9 208.55 44.65 206.45 44.8 204.65 45.45 203.15 46 202.5 46 201.6 46.35 199.9 47.7 197.1 49.15 195.15 52.25 192 52.65 191.15 52.75 190.95 52.85 190.75 53 190.4 53.3 188.85 54.25 188.15 55.3 187.7 56.4 187.45 57.45 187.5 58.45 187.75 59.5 188.2 60.55 188.9 62.6 190.75 63.65 191.45 65.15 191.95 65.75 192 66.85 191.8 67.9 191.45 70 189.9 74.55 189.75 75.45 189.65 75.5 189.55 76.35 189.55 77.8 189.4 78.4 189.15 78.9 189.05 79.75 188.7 80.3 188.25 80.4 188.05 80.4 187.85 85.9 187.85 86 187.9 86.35 188.05 86.65 188.05 87 188.1 87.55 188.1 88 188.05 88.15 187.9 88.15 187.85 88.3 187.85 88.4 187.7 88.6 187.55 88.75 187.2 88.75 186.8 88.85 186.8 91.6 186.1 95.1 185.75 96.05 185.4 96.2 185.25 96.9 185.1 98.05 184.55 98.45 184.45 99.05 183.95 99.4 183.6 99.4 183.55 99.55 183.55 100.35 182.6 100.4 182.7 101.65 184.45 102.8 185.5 102.95 185.55 103.1 185.65 103.45 185.75 105.55 182.6 107.65 185.75 110.55 184.4 114.1 183.65 114.95 183.65 115.45 183.6 117.5 183.15 121.2 181.55 135.85 180.55 125.4 171.1 125 170.05 124.9 169.15 125 168.35 125.4 167.7 126 167.05 126.95 166.55 128.15 166.15 129.6 165.9 130.05 165.95 130.55 165.95 131 165.9 131.25 165.85 131.55 165.85 132.95 165.1 133.2 164.9 133.5 164.8 134.3 163.85 134.3 163.75 135.2 162.7 136.9 159.6 138.15 159.3 142.15 159.05 143.6 159.3 144.25 159.6 144.6 159.05 145.3 158.65 146.3 158.25 155.75 157.55 162.8 161.15 162.9 161.15 163.7 161.55 163.75 161.55 164.6 161.95 165.95 162.45 166.2 162.5 166.5 162.6 166.7 162.65 167 162.8 167.2 162.8 167.75 162.9 168.25 162.8 175.55 157.55 180.8 151.3 172.45 148.15 170 147.9 168 147.3 166.35 146.3 165.65 145.65 165.1 144.95 163.05 146.05 162.05 145.5 160.05 144.85 159 144.75 156.6 144.75 152.8 145.5 149.95 146.6 143.75 150.1 142.15 151.3 129.6 153.35 119.15 157.55 109.2 164.25 105.35 165.75 103.75 165.95 102.4 165.9 84.65 171.1 72.5 166.25 71.05 165.5 70.45 165 69.5 164 68.85 162.85 68.5 161.5 68.4 160 68.65 158.35 68.95 157.55 69.2 154.1 70.5 149.15 72.15 145.95 75.45 141.3 79.9 136.75 85.7 132.45 88.65 133.3 88.7 133.3 90.55 134.15 90.9 134.5 99.5 134 102.45 133.3 103 133.05 103.6 132.85 104.55 132.45 105.35 132.4 105.4 132.35 106.25 132.35 107.9 132.15 108.95 131.85 109 131.8 109.35 131.8 110.8 131.4 113.1 130.05 113.95 129.15 114.1 129.15 114.5 128.7 114.95 128.25 117.55 127.95 118.05 127.8 118.2 127.7 118.45 127.6 118.8 127.4 119.15 127.2 122.25 126.25 123.35 126.15 126.25 124.65 130.65 123 138 118.85 138.05 116.8 138.5 113.75 138.7 113.1 139 112.55 138.9 111.75 138.75 111.05 138.15 109.7 137.15 108.45 135.85 107.4 138 96.9 141.1 94.8 139.85 92.7 138.55 88.45 138.55 84.3 139.85 80.1 141.1 78.1 142.15 64.5 138.45 63.15 134.55 62.4 125.4 62.4 122.3 64.5 121.95 64.2 121.65 64 120.95 63.7 120.05 63.55 119.15 63.5 118.1 64.25 117.05 64.75 115.95 64.8 115.45 64.65 114.95 64.5 103.45 65.55 91.95 67.6 89.55 66.85 88.4 66.75 87.55 66.8 86.65 66.95 85.9 67.4 85.2 67.9 84.65 68.7 73.15 70.8 62.7 70.8 62.2 71 62 71.05 61.8 71.15 61 71.45 60.1 71.45 60.1 71.5 59.25 71.5 58.25 71.25 57.35 70.9 57.15 70.8 56.3 70.4 54.25 68.8 53.6 68.4 52.3 67.85 50.85 67.6 50.15 67.6 47 59.3 47 49.85 48.4 49.7 49.6 49.35 50.5 48.6 51.2 47.8 51.65 46.25 53.3 42.55 53.15 41.95 53.2 41.6 53.35 41.3 53.9 40.6 56.7 38.6 61.65 36.3 76.25 34.15 77.15 33.65 80.2 32.8 82.3 32.55 94.1 32.1 100.35 30.05 102.95 30.15 104.25 30.4 105.2 30.75 105.55 31.05 107.65 28.95 107.65 29.4 107.75 30.05 107.9 30.2 108 30.25 108.2 30.25 108.4 30.2 108.7 30.05 109.7 28.95 111.85 31.05 112.8 30.75 118.1 30.05 120.4 29.5 123.35 27.9 126.45 28.95 128.35 28.45 132.15 27.9 132.75 27.9 140.05 26.85 142.15 27.9 142.5 27.2 142.8 26.3 142.9 23.7 141.2 16.1 141.2 16 141.1 15.4 141.45 13.3 142.25 11.35 143.3 9.4 146.4 5.75 150.85 2.3 153.6 0.75 154.95 0.3 156.45 0.05 158.05 0 161.7 0.45 165.95 1.85 168.25 2.85 170.35 2.95 172.3 3.55 172.85 3.8 173.9 4.45 175.25 5.75 175.6 6.2 176.6 8.1 177.7 14.35 178.5 17.3 178.5 17.35 179.15 18.75 179.4 19.2 179.75 19.55 179 19.85 178.65 20 177.9 20.85 177.65 21.6 177.45 22.4 177.45 24.55 177.5 25.15 177.7 25.85 194.4 26.85 201.4 26.6 206.2 27.3 207.85 27.85 210.1 28.95 210.6 28.45 211.4 28.15 212.2 27.95 213.2 27.9 214.25 28.95 215.15 28.45 216.75 27.95 217.4 27.9 219.5 28.95 221.35 28.05 225.25 26.95 229.35 26.95 233.85 28.05 236.2 28.95 236.9 28.95 238.2 29.2 239.3 29.7 240.05 30.5 240.4 31.05 242.25 31.25 248.9 32.8 252.9 34.45 255.05 35.7 256.8 37.1"/>
    <path stroke="none" fill="#CC3300" d="M226.55 84.35 L227.35 84.55 227.8 84.55 228.25 84.6 229.1 84.55 229.5 84.45 229.95 84.35 233.1 88.55 234.4 88.15 235.8 88.1 237.2 88.25 238.8 88.8 240.35 89.55 242.05 90.7 245.6 93.75 246.6 93.3 247.7 93.05 248.85 93 251.2 93.5 253.7 94.85 255.05 95.9 263.4 97.95 270.75 101.05 285.35 105.25 288.15 106.4 288.95 106.55 290.4 106.6 291.6 106.3 298.95 109.45 305.2 111.5 318.15 114.65 319.4 115.1 319.45 115.1 321 115.9 321.7 116.4 321.95 116.75 321.95 125.15 315.65 130.35 308.3 134.5 308.2 136.15 307.9 137.6 307.7 137.85 307.35 138.65 307 139.05 306.9 139.1 306.7 139.5 305.85 139.95 304.75 140.2 304.4 140.15 304.1 140.15 303.75 140.05 303.45 140.05 302.05 139.75 284.3 144.95 Q283.3 145.4 282.25 145.8 L280.35 146.25 278.6 146.3 277 146.05 268.6 146.05 263.4 141.85 261.35 140.5 260.35 140 259.45 139.7 257.7 139.5 256.85 139.55 256.1 139.75 241.45 125.15 240.5 125 239.85 124.85 239.6 124.65 239.45 124.5 239.35 124.25 239.35 124.1 238.7 123.15 238.35 122.7 238 122.5 237.5 122.25 236.65 122 236.2 122 208 97.95 204.6 96.65 204.55 96.65 204.35 96.55 203.55 96.1 200.65 94 194.9 88.6 191.25 84.35 191.8 82.9 192.9 81.2 193.4 80.75 194.4 80.2 195.35 79.85 195.5 79.7 196.2 79.55 197.75 78.85 198.35 78.35 198.7 78 198.7 77.95 198.85 77.95 199.65 77.05 206.95 77.05 214.25 80.2 215.2 79.95 217.35 79.95 219.45 80.4 221.6 81.5 224.6 83.55 226.55 84.35"/>
    <path stroke="none" fill="#CC3300" d="M51 98.1 L52.3 98.1 52.8 98.2 53.15 98.1 54.3 98.1 54.95 98 55.1 97.95 55.6 97.95 56.5 97.55 56.7 97.55 57.25 97.2 57.5 97.1 57.6 96.95 57.8 96.8 57.9 96.65 58.1 96.55 58.25 96.15 58.5 95.9 63.5 96.75 63.8 96.75 64.75 96.9 82.6 90.65 85.2 89.25 85.95 89.05 86.45 88.8 87.4 88.55 87.75 88.55 89.6 87.85 90.15 87.5 90.35 87.45 91.15 86.95 92.25 85.8 93 84.35 93.4 84.2 93.6 84 93.95 83.85 94.3 83.5 94.8 83.15 102.4 76 104.25 75.8 104.6 75.7 104.6 75.65 105 75.65 105.35 75.5 105.35 75.45 105.75 75.45 106.9 74.75 107.05 74.5 107.3 74.35 107.65 73.95 109.55 74.8 109.6 74.8 112.65 76.4 112.95 76.55 113.9 77.05 119.15 81.25 120.2 84.8 120.2 85.2 120.3 85.3 120.4 85.9 120.45 87.8 120.35 88.7 120.2 89.1 120.15 89.55 118.1 96.9 114.95 103.2 97.2 111.5 79.45 120.95 70 124.1 44.1 130.05 41.8 130.35 40.75 131.95 39.9 132.4 39.7 132.45 37.55 133.15 36.1 133.95 35.5 134.5 17.75 137.65 15.65 138.7 15.25 137.95 14.85 137.4 14.2 137 13.55 136.8 12.2 136.75 10 137.35 9.4 137.65 0 125.15 1.55 123 1.95 121.95 2.1 120.95 2.6 119.4 4.65 114.6 7.3 110.25 10.8 105.9 17.45 99.05 18.8 97.95 20.35 98.25 21.85 98.2 23.4 97.7 25.05 96.9 26.2 96 27.4 95.6 28.75 95.5 29.5 95.6 30.3 95.9 51 98.1"/>
  </g>
<g transform="translate(454.85,77.2)">
    <path stroke="none" fill="#CC3300" d="M271.95 140.85 L283.5 129.3 281.7 140.85 276.4 149.7 271.95 155 271.45 158.1 271.1 159.45 271 160.35 271 160.7 270.85 161.85 270.6 162.6 270.55 162.9 270.35 163.35 270.2 163.85 268.95 164.9 268.65 165.2 267.75 165.6 267.55 165.65 253.35 179.8 244.5 179.8 242.7 180.4 241.45 181.05 240.95 181.55 239.9 180.85 239.8 180.8 238.75 180.1 238.65 180.05 231.2 174.5 209.1 164.75 188.7 160.3 185.15 211.7 182.5 228.5 184.25 239.15 182.5 251.55 182.45 251.75 182.35 255.35 182.05 258.85 181.45 262 181.15 263.05 181.1 263.45 180.75 264.85 166.95 267.25 164.8 267.5 162.15 265.75 161.25 263.95 160.9 262.55 160.8 261.25 160.9 259.95 161.25 258.65 161.25 230.3 162.55 229.4 162.95 228.7 163 228.5 163 209.05 160.35 188.65 161.25 177.15 160.35 172.7 160.35 171.85 160.8 170.1 161.75 167.7 163 165.65 163.65 162.3 163.9 159.45 163.8 158.65 163.65 158.1 163.5 157.85 163.35 157.75 163.15 157.65 162.25 157.65 160.8 157.95 158.45 159.1 156.8 160.3 147.95 164.75 139.6 167.7 137.3 168.3 132.9 166.5 125.8 160.3 124.65 157.45 124.25 155.45 124.05 152.35 124.9 144.35 132 141.7 136.45 139.05 139.1 135.55 140 134.65 144.4 126.65 147.05 123.1 147.65 122.95 150.85 122.9 153.3 123.35 155.05 123.95 156.8 124.9 157.9 125.25 161.2 125.95 163.4 126 165.65 125.75 166.75 124.35 167.45 123.05 167.6 122.35 167.65 121.75 167.6 121.05 167.45 120.45 165 118.2 163.95 117.4 163 116.9 147.95 120.45 145.5 105.8 145.3 102.75 156.8 100.1 165.65 96.55 169.2 95.65 171 88.55 171.3 88 172.25 87.15 173.45 86.6 174.95 86.35 176.7 86.35 178.75 86.6 181.05 87.15 185.15 88.55 185.5 89.35 185.5 89.4 185.65 89.7 185.8 90.1 185.8 90.25 185.85 90.35 185.95 90.65 185.95 90.8 186 90.9 186.05 91.2 202.85 96.55 203.6 96.95 204.2 97.4 204.5 97.8 204.6 98 204.65 98.3 203.75 106.3 206.4 115.15 201.1 119.55 198.4 119.3 195.8 118.7 186.95 118.7 184.25 129.3 186.95 135.5 207.3 135.5 219.7 139.05 221.25 137.9 221.5 137.5 221.8 137.15 222.05 136.75 222.35 136.4 221.25 133.25 220.1 131.5 219.7 131.1 218.6 130.2 214.8 127.65 210.15 125.5 208.2 124 211.75 117.8 212.1 116.8 212.5 114.6 212.5 114.25 212.6 113.35 215.3 102.75 214.35 94.35 214.15 91.85 213.5 88.55 212.6 87.75 211.7 87.2 210.8 86.9 210.35 86.8 209.95 86.8 149.7 82.35 133.8 82.35 92.15 88.55 58.5 100.1 56.8 102.45 56.1 103.75 55.8 104.9 55.85 106.65 56.25 108.85 56.7 109.8 59.05 110.4 61.5 111.3 62 111.6 67.35 111.6 69.1 108.05 69.95 107.2 71.75 105.85 72.65 105.4 78.85 103.6 78.85 103.55 79.6 103.55 79.6 103.5 80.35 103.5 80.95 103.4 81.05 103.35 81.5 103.35 81.65 103.25 82.15 103.1 82.3 102.9 82.35 102.8 82.35 102.75 82.4 102.75 84.15 101.85 87.45 101.15 90.35 100.95 90.35 105.4 91.25 114.25 90.35 116.9 89.9 117.55 89.7 117.7 89.5 117.8 86.85 119.55 86.4 119.95 85.85 120.6 85.7 120.9 85.6 121.05 85.65 121.2 85.7 121.3 85.95 121.35 92.15 125.75 101.9 114.25 101.95 112.95 102.35 110.75 102.75 109.8 102.5 107.1 101.9 104.5 96.55 98.3 99.25 95.65 126.7 100.1 134.65 109.8 135.9 112.05 139.1 119.55 132.9 128.4 115.25 136.8 114.55 137.3 112.2 139.5 111.75 140.1 110.7 142.15 110 144.45 109.85 147.05 109.95 148.35 110.3 149.65 110.85 150.95 111.65 152.35 114.3 154.1 116.95 160.3 121.4 167.4 119.6 172.7 119.6 181.55 117.85 184.25 116.95 187.75 116.55 187.8 115.5 188.1 115.1 188.15 114.05 188.4 113.6 188.4 110.75 188.65 103.65 186 101.85 185.15 101.4 184.85 100.6 184.1 100.3 183.7 97.45 178.9 91.25 173.6 91.3 173.2 91.75 171.3 91.75 171.05 91.9 170.45 91.9 169.7 91.95 169.5 92.15 166.5 92.1 165.8 91.7 164.05 90.75 162.5 90.35 162.1 88.55 160.95 87.65 160.5 87.05 160.3 86.85 160.3 85.05 168.3 84.3 169.2 84.1 169.55 83.8 169.8 83.05 170.7 82.15 171.45 81.9 171.75 81.55 171.95 80.65 172.7 72.65 183.35 62.9 193.1 57.6 194.85 55.8 199.3 55.4 199.7 55.15 200.15 55 200.55 54.95 201.05 46.95 205.5 31 217 19.5 224.1 19.1 224.05 18.75 224.05 17.3 223.65 15.75 223 13.3 221.45 9.8 216.25 8.85 215.25 7.1 209.9 1.5 203.35 1.3 203.05 1 202.4 0.05 196.25 0 189.55 2.65 181.55 16.85 191.3 27.5 188.65 40.75 179.8 73.55 151.45 76.2 147.9 72.65 147.05 73.05 146.3 73.2 145.9 73.4 145.55 74 143.9 74.05 143.4 74.15 142.95 74.2 142.45 74.3 142 74.4 141 74.45 139.95 73.55 136.4 70.9 134.65 70.4 134.85 69.35 135.45 68.25 136.35 67.05 137.45 66.45 138.15 57.6 142.6 44.3 150.55 39 151.45 28.35 154.1 21.3 150.55 17.75 144.35 14.2 125.75 35.45 124 44.3 122.2 48.75 122.2 51.4 117.8 50.95 117.3 50.7 116.9 50.55 116.4 50.5 116 51.4 110.7 49.6 109.8 49.6 106.3 46.95 106.3 41.65 108.05 38.4 108.4 37 108.2 35.85 107.8 34.8 107.1 33.95 106.2 33.55 105.6 33.25 105 32.8 103.6 31 95.65 28.35 90.35 28.45 89.45 28.8 88.55 29.35 87.65 30.15 86.8 31 84.15 37.2 77.95 35.45 73.5 40.75 62 43.4 49.6 44.05 48.7 44.3 47.8 53.15 50.45 54.05 50.2 54.95 49.6 56.2 49.15 57.35 48.9 59.35 48.7 61.4 48.9 62.95 49.3 65.55 50.45 67.15 54.55 68.05 58.95 68.25 62 66 70.65 65.55 73.9 65.55 76.15 66.9 74.9 70 73.1 71.75 72.6 84.15 71.75 85.05 69.05 100.1 67.3 110.75 63.75 149.7 61.1 171.85 62 172.75 61.1 155.05 32.75 157.7 28.35 149.7 26.55 131.55 24.65 123 24.55 121.4 24.8 122 27 122.65 28.55 122.85 28.9 123.15 29.2 133.8 32.75 140 36.3 141.25 36.75 143.45 38.1 144.4 38.95 144.85 42.55 147.05 52.25 145.3 56.65 143.1 58.1 141.05 59.05 139.1 59.45 136.8 59.3 136.7 59.25 136.35 59.25 135.3 59.1 134.4 58.85 134.3 58.8 134.15 58.8 131.4 58 130.6 57.85 125.8 57.55 123.8 57.3 123.45 57.15 123.3 57 123.15 56.8 123.15 56.65 122.25 54 118 50.95 117.35 50.35 116.5 49.25 116.25 48.75 116.1 48.25 116.05 47.8 114.3 42.5 110.75 34.55 113.4 26.55 112.5 24.8 105.45 28.35 88.6 26.55 78.85 31 85.05 36.3 94.8 38.95 96.9 40.25 97.45 40.75 100.1 46.05 104.55 52.25 100.1 56.65 99.25 60.2 96.95 61.25 94.75 61.95 92.55 62.15 89.2 61.95 85.9 61.55 81.5 60.2 73.55 55.8 73.55 53.15 70.9 52.25 68.85 42.9 68.25 36.3 70.9 30.1 57.6 35.4 56.9 35.8 53.15 38.95 47.85 38.05 34.55 43.4 23.95 45 15.75 46 14.2 46.05 13.5 45.75 12.9 45.4 11.75 44.45 10.7 43.15 9.75 41.6 9.75 36.3 10.65 26.55 14.4 23.2 22 18 26.75 15.75 27.45 15.5 29.6 15.1 31 15.05 86.85 5.3 151.5 0 207.3 3.5 225 7.95 229.2 8.6 233 8.85 235.65 7.95 236.05 7.95 237.6 8.35 248.05 13.25 248.05 20.35 250.7 27.45 250.7 28.35 247.15 35.4 246.4 36.4 245.55 37.25 245.05 37.6 244.95 37.6 244.6 37.95 243.6 38.5 242.4 38.85 241.15 39.05 239.75 39.05 239.35 39 238.3 38.95 195.8 31.85 171.85 27.45 165.65 27.45 165.65 30.1 166.5 30.7 171.95 33.55 181.2 37.05 184.25 38.95 186.05 41.6 185.8 43.6 185.15 46.05 184.25 55.8 178.05 60.2 178.65 61.75 179.35 62.65 179.55 62.8 179.85 62.85 209.1 59.35 224.15 66.4 228.5 69.4 233.75 74.3 236.9 77.85 241.9 84.75 243.6 87.85 246.7 95.65 247.1 97.15 247.9 101.85 248.05 108.05 246.3 116.9 242.75 124.9 240.1 133.75 236.55 139.05 236.6 141.55 236.75 142.15 237 142.45 237.15 142.55 251.6 145.25 263.1 145.25 271.95 140.85"/>
  </g>
<g transform="translate(829,80.1)">
    <path stroke="none" fill="#CC3300" d="M167.5 134.1 L168.95 135.05 170.35 136.3 182.9 137.3 185.2 138.05 186.95 139.05 188.2 140.2 188.6 140.8 188.9 141.45 189 142.8 188.6 144.3 187.6 145.9 186.05 147.75 178.75 159.25 176.6 161.85 175.55 162.75 168.25 167.65 168.05 167.55 166.3 167.5 164.3 167.15 159.85 165.8 149.5 160.3 150.2 149.05 152.15 141.95 153.6 139.45 154.15 137.9 155.8 135.3 156.8 134.15 157.75 133.75 159.7 133.15 161.6 132.95 162.5 132.95 165.05 133.25 166.65 133.7 167.5 134.1"/>
    <path stroke="none" fill="#CC3300" d="M242.8 96.05 L244.6 95.55 245.3 95.05 246.15 94.9 246.85 94.9 247.65 95.25 248.35 95.7 249.2 96.4 250 97.35 250.85 98.65 258.15 107.05 265.5 114.35 266.2 114.35 267.5 114.7 268.55 115.55 268.95 116.05 270.1 118.2 272.45 121.3 272.8 121.65 272.75 122.5 272.7 122.55 272.7 123.4 272.5 124.95 272.4 125.25 272.15 126.35 271.8 127.25 271.75 127.65 271.2 128.4 271.1 128.7 270.4 129.65 269.65 130.15 269.5 130.4 269 130.7 268.6 131.05 256.55 133.25 256.1 133.4 255.8 133.4 255.1 133.6 252.95 133.55 252.45 133.35 252.3 133.35 250.55 132.95 247.95 131.8 246.5 131 242 127.85 235.15 121.65 235.15 112.4 235.4 110.55 235.9 108.45 237.3 104.9 237.35 103.15 237.95 100.8 238.3 100.15 240.05 97.75 240.65 97.25 242.8 96.05"/>
    <path stroke="none" fill="#CC3300" d="M141.1 6.7 L141.95 6.25 143.65 5.85 145.3 5.95 146.1 6.15 146.85 6.45 148.25 7.35 148.95 7.95 151.5 11.5 152.6 14 152.55 14.8 152.5 14.9 152.5 15.7 152.25 17.3 151.8 18.65 151.6 18.85 151.6 18.95 151.25 19.95 150.85 20.35 150.85 20.5 150.5 21 149.6 21.95 149.05 22.3 148.95 22.3 148.55 22.7 147.35 23.35 145.7 23.2 144.9 23.2 142.45 23.65 138.15 25.8 130.2 33.1 126.7 35.1 125 35.55 123.35 35.7 121.7 35.4 120.15 34.9 124.35 26.5 129.6 18.2 134.8 8.75 141.1 6.7"/>
    <path stroke="none" fill="#CC3300" d="M183.6 37.35 L185.2 37 186.05 36.95 186.95 37 190 37.9 192.3 39.05 194.5 39.55 198.4 40.85 201.5 42.35 202.8 43.3 204.85 45.3 211.15 54.75 227.85 56.85 228.3 57.3 229.9 58.4 231.45 58.9 232.05 58.95 234.6 59.95 235.5 60.45 236.2 61 241.45 71.45 230.95 98.65 227.3 115.55 226.75 122.15 227.3 128.1 227.85 130 227.3 130.3 226.5 131.6 226 133.7 225.75 138.35 226.25 138.8 226.75 139.05 227.25 139.25 227.85 139.35 228.9 139.05 229.95 138.35 230.95 137.3 249.8 147.75 258.15 150.95 259.05 151.4 260.65 152.7 261.3 153.45 261.7 154.25 262.05 155.2 262.35 157.2 263 157.5 263.45 157.9 263.75 158.35 263.9 159 263.75 159.65 263.45 160.5 262.35 162.4 254.75 167.2 249.35 169.8 244.3 171.4 241.1 171.95 235.15 171.8 231.1 167.65 230.45 166.55 230.1 165.5 229.95 164.5 227.85 155.05 224.7 160.3 224.2 162.6 222.65 165.55 220.5 178.05 220.25 178.9 219.65 182.25 219.7 184.55 219.85 185.9 220.8 188.45 221.6 189.6 217.4 200 212.2 209.45 200.05 218.35 199.35 218.8 198.8 219.2 197.9 219.7 197.5 219.9 194.6 222.25 190.35 224.9 186.3 226.65 183.55 227.15 180.8 227.3 178.15 226.9 170.25 224.35 168.8 224.1 168.25 224.1 159.95 220.95 159.8 220.9 159.65 220.9 159.45 220.8 159.35 220.75 142.15 207.35 141.85 204.7 141.5 203.75 141.1 203.15 140.35 202.3 139.3 200.9 138.75 199.6 138.7 199 138.75 198.45 139 197.95 160.65 194 167.05 193.8 170.7 194.3 172.45 194.85 174.8 192.7 178.65 190.05 179.5 189.6 181.05 188.5 182.1 187.45 182.9 186.45 184.3 186.65 184.9 186.45 185.45 186.15 185.95 185.6 185.95 185.45 186 185.45 186.1 185.35 186.35 185.05 187.55 182.3 188.6 180.75 189.95 179.5 190.15 179.15 190.25 179.05 190.45 178.6 190.5 177.4 190.2 176 194.4 162.4 195.45 154.05 195.45 145.7 197.5 143.6 197.5 141.55 197.85 138 198.7 135.1 199.95 132.95 200.7 132.1 201.7 100.7 203.8 99.7 203.3 98.65 201.95 95.25 201.7 93.95 201.7 93.4 202 93.05 202.35 92.75 202.95 92.05 203.1 91.6 203.35 91.15 203.75 90.2 203.8 89.65 203.95 89.1 203.95 86.5 203.9 86.25 203.8 85.05 186.05 68.35 184.25 67.2 181.1 64.85 178.5 62.25 176.4 59.35 175.1 56.85 174.8 55.75 174.7 54.7 174.9 52.6 175.85 50.45 178.35 47.45 179.45 45.55 179.95 43.8 179.75 42.2 180.1 41.15 181.05 39.5 182.25 38.2 183.6 37.35"/>
    <path stroke="none" fill="#CC3300" d="M248.8 74.05 L248.8 71.95 248.95 71.05 249.25 70.15 250.5 68.55 251.2 67.85 253.25 65.25 253.95 64.15 253.95 63.55 254.35 62.2 255.7 59.8 257.1 57.9 257.15 56.55 257.5 55.25 258.1 53.95 259.85 51.35 261.15 50.05 264.4 47.45 266.05 49.25 273.25 55.25 287.45 64.15 291 64.9 295.8 65.2 298.95 63.1 299.85 63.55 302.8 64.65 303.65 64.85 303.85 64.85 305.35 65.15 305.75 65.15 306.25 65.2 313.55 65.2 316.95 68.2 320.05 72.25 320.95 74.25 321.4 76.1 321.55 77.1 321.4 79 320.9 80.9 315.65 91.35 313.55 101.8 314.4 102.3 315.1 102.95 315.45 103.75 315.55 104.15 315.65 104.6 315.1 106.6 313.55 109.1 312.5 132.1 307.3 150.95 307.3 157.2 307.5 158.15 307.5 158.55 307.55 159 307.55 159.8 307.5 160.15 307.5 160.55 307.3 160.9 307.3 161.1 307.15 161.3 307 161.6 306.65 162 306.25 162.4 305.2 171.8 302.05 181.2 295.8 203.15 293.7 214.65 281.3 226.4 280.8 226.7 280.5 227 280.1 227.2 267.55 232.4 267.45 233.1 267.3 233.4 267.25 233.75 267.05 234 266.95 234.1 266.9 234.1 266.9 234.3 266.5 234.75 266.15 234.9 265.95 234.9 265.95 234.95 265.85 235.05 265.5 235.2 265.3 235.2 265.3 235.25 265.2 235.35 264.7 235.4 264.3 235.55 263.4 235.55 263.4 235.6 261.8 235.7 260.45 236.05 259.2 236.7 258.65 237.15 258.15 237.65 249.65 232.9 247.4 231.05 244.3 227.85 241.75 224.45 233.1 206.35 258.2 198.5 263.65 196.1 264.5 195.65 265.5 194.85 266.05 193.8 266.2 193.55 266.7 192.8 267.85 190.7 269.9 185.7 272.8 172.9 273.2 172.5 273.7 172.25 274.5 171.5 275 170.7 275.1 170.65 275.65 169.7 275.75 169.1 275.75 168.95 275.9 168.55 275.9 168.05 276 167.9 276.1 167.35 276.05 166 276 165.75 275.9 162.75 276.3 159.7 277.1 157.35 277.65 156.4 278.3 155.65 279.05 155.05 281.15 113.3 281.35 113.05 281.6 112.9 281.6 112.7 281.65 112.7 281.75 112.6 282 112.3 282.7 110.4 282.7 109.85 282.75 109.75 282.9 109.1 282.9 108.7 283.05 107.55 283.25 103.85 281.15 94.45 280.15 92.35 279.8 91.8 278.95 90.85 278.45 90.5 277.4 90 276.2 89.75 274.9 89.75 273.5 90 272.8 90.3 249.8 77.7 249.25 76.4 248.8 74.05"/>
    <path stroke="none" fill="#CC3300" d="M171.1 83.25 L172.6 82.3 173.45 82.15 174.15 82.1 174.95 82.2 175.8 82.5 176.6 82.95 186.05 91.35 194.4 108.05 190.2 117.5 183.35 117.95 177.65 117.4 173.95 116.3 171.85 115.25 170.95 114.65 169.3 113.3 169.2 112.25 168.95 111.35 168.55 110.5 168 109.85 167.25 109.2 166.35 108.75 165.3 108.35 164.1 108.05 166.2 88.2 171.1 83.25"/>
    <path stroke="none" fill="#CC3300" d="M157.85 47.7 L160.4 48.15 162.45 49 163.6 49.75 164.4 50.65 165.1 51.65 158.85 64.15 129.6 65.2 128.15 66.6 127.1 68.1 126.35 69.9 126.25 70.35 126.25 71.65 126.3 72.05 126.45 72.5 127.35 73.45 130.35 75.3 137.65 77.55 144.25 78.75 153.6 86.1 153.5 87.1 153.15 88.35 151.8 91.05 150.7 92.5 146.3 97.6 137.4 97.6 136.05 97.85 135.3 98.15 134.45 98.35 131.65 99.7 122.05 99.8 121.1 100.05 120.35 100.55 120.05 100.85 119.85 101.25 119.65 101.6 119.5 102.1 119.5 103.2 119.7 104.45 120.75 108.75 121.7 110.95 122.25 111.7 122.9 112.4 123.55 112.9 124.35 113.3 125.1 112.75 125.95 112.45 126.75 112.3 127.7 112.25 128.6 112.3 130.6 112.75 132.6 113.7 133.55 114 133.75 114 134.45 114.15 134.6 114.15 134.85 114.25 135.3 114.3 136.75 114 136.85 113.9 136.85 113.8 137.05 113.8 137.4 113.7 138 113.3 138.5 113.95 139.3 114.55 141.35 115.35 142.6 115.55 145.6 115.55 147.35 115.35 150 117.35 151.8 119.5 152.6 121.6 152.75 122.65 152.6 123.75 149.15 128.65 147.2 130.5 146.65 130.85 145.25 132.05 144.35 132.4 144.1 132.6 143.05 133.1 140.75 133.9 140.2 133.9 140.1 133.95 139.5 134.05 137.1 134.25 136.75 134.15 135.05 134.15 133.75 134.4 132.65 134.95 131.9 135.75 131.65 136.3 121.05 137.85 115.25 139.55 113.2 140.55 111.8 141.65 111.3 142.25 110.95 142.9 109.7 147 108.95 148.45 108.2 149.5 107.55 150.95 107.25 152.25 107.35 153.45 107.65 154.05 103.45 161.35 97.2 168.7 97 169.05 96.1 170.8 86.75 184.4 86.6 184.9 86.6 185.15 85.75 189.2 85.25 190.85 81.75 196.9 81.4 197.2 79.3 199.65 77.8 200.95 77.55 201.1 76.35 202.3 68.95 207.35 68.25 207.45 66.75 207.9 64.25 209.1 56.95 213.8 53.3 216.75 52.8 217.3 52.65 217.55 50.8 219.6 50.65 219.85 50.4 219.95 49.9 220.5 49.65 220.6 49.15 221.15 48.3 221.75 48.05 221.85 47.55 222.4 45.9 223.2 45.7 223.4 43.8 224.4 42.75 224.75 42.45 224.8 41.75 225.15 39.7 225.85 37.35 226.35 36.95 226.35 34.9 226.75 31.3 226.9 31 227 29.7 227.1 29.3 227.05 17.75 226.15 16.7 224.8 16.1 224.35 15.6 224.05 15 223.85 14.55 223.8 14 223.85 Q13.8 223.95 13.55 224.1 L1.05 212.6 0 203.15 8.7 198.7 16.5 196 18.5 195.65 20.15 195.65 20.85 195.85 21 194.85 21.1 194.35 22.05 193.25 23.65 192.35 23.75 192.25 23.75 192.15 23.95 192.15 24.3 192.05 25.3 191.4 25.75 190.6 25.9 190.5 26.05 190.05 26.1 189.6 35.5 185.4 35.8 184.6 36.2 184.05 36.7 183.55 37.35 183.25 38 183.1 38.8 183.05 39.7 183.1 40.75 183.3 40.75 183.25 41.65 183.25 42.05 183.15 42.5 183.1 42.85 182.9 43.25 182.8 43.35 182.65 43.35 182.6 43.5 182.6 43.9 182.5 44.3 182 44.3 181.85 44.35 181.85 44.45 181.75 44.65 181.5 44.7 181.15 44.8 180.85 44.9 180.5 44.9 180.3 44.95 180.2 46.55 179.9 48.3 179.15 56.55 172.8 57.9 172.05 58.5 171.8 75.25 150.95 77.9 141.75 77.8 140.95 77.55 140.45 77.25 140.15 77.05 139.95 76.35 139.65 75.4 139.5 74.2 139.45 73.95 139.7 73.8 140.05 73.3 140.7 71.85 141.75 71.3 141.85 71.15 141.85 70.8 142 70.2 142.15 70 142.15 69.65 142.3 65.35 142.6 64 142.85 62.75 143.25 61.65 143.85 60.65 144.55 59.8 145.45 59.05 146.5 58.5 147.75 52.25 149.85 51.25 149.95 50.35 150.1 49.6 150.4 48.6 151.4 48.3 152.15 48.1 153.05 48.05 154.05 47.1 154.7 46.25 155.05 46 155.25 43.05 155.85 41.2 155.85 41.05 155.75 39.2 155.75 38.6 155.65 38.45 155.6 38.1 155.6 34.5 155.05 32.7 152 28.85 143.2 28.25 141.2 28 139.45 28 138.65 28.2 137.3 48.05 125.8 73.15 115.35 73.3 115.3 74.95 115.3 75.15 115.25 76.8 115.25 77.6 115.1 77.8 115.05 78.5 115.05 83.05 114.3 85.65 113.5 85.9 113.35 86.75 113 87.25 112.7 87.75 112.45 88.2 112.1 89.55 111.2 90.25 110.45 90.45 110.1 90.55 110.05 90.9 109.7 91.95 108.05 92.3 106.5 92.45 105.25 92.2 104.15 91.95 103.65 91.7 103.3 91.3 102.9 90.35 102.3 89.85 102.15 88.4 101.85 86.75 101.8 85.7 102.85 84.7 102.3 83.1 101.85 82.6 101.8 81.6 102.1 81.1 102.1 80.7 102 80.3 101.85 80 101.55 79.45 100.7 74.65 102.3 62.7 103.85 58.75 106.2 56.95 106.8 56.15 107 55.4 107.05 49.15 113.3 36.55 113.3 29.3 94.1 29.25 93.7 29.25 93.4 34.45 88.85 39.65 85.8 42.2 84.8 44.8 84.15 47.4 83.85 50.15 84 50.9 83 52.75 81.35 54.85 80.35 57.2 79.9 61.35 79.6 62.6 79.3 62.95 79.15 63.1 79.15 63.7 79 64.65 78.55 64.7 78.4 65.55 78 66.25 77.35 66.55 77 66.9 76.7 68.5 76.3 69.3 76.2 71.15 76.2 74.2 76.7 89.9 75.65 90.3 75.1 91.2 74.3 91.65 74.05 92 73.8 92.65 73.6 93 73.6 93.1 73.95 93.25 74.05 93.55 73.95 Q93.85 73.75 94.1 73.6 L94.2 73.5 94.4 73.5 94.75 73.45 95.05 73.35 95.4 73.3 95.6 73.1 95.75 73 95.75 72.95 95.9 72.95 96.4 72.5 96.5 72.15 96.5 72 96.55 72 96.7 71.85 96.8 71.5 97 71.15 97.05 70.7 97.15 70.3 97.15 69.4 97.2 69.4 96.05 68.1 94.75 67.05 92.45 65.75 90.7 65.1 86.9 64.25 83.6 64.15 70 65.2 44.95 69.4 42.4 71 41.2 71.45 40.15 71.7 39.1 71.7 38.2 71.45 37.35 71 36.55 70.4 36.55 71.45 29.75 63.9 28.5 61.8 28.2 61 28.85 60.65 29.15 60.45 29.25 60.3 29.25 60.25 29.4 60.25 29.4 60.05 29.5 60.05 29.6 59.95 29.75 59.7 30 59.15 30 58.35 29.95 58.1 29.95 57.6 29.25 55.75 27.65 52.85 27.2 51.05 27.2 50.55 28.2 42.2 40.75 42.2 54.3 43.25 56.5 41.9 57.1 41.2 57.35 41 58 40.05 58.15 39.5 58.4 38.95 58.65 37.7 58.65 36.35 58.55 36.1 58.5 34.9 56.45 25.5 55.1 22.55 54.55 21 54.3 19.7 54.3 19.2 54.25 18.7 54.25 18.3 53.95 16.75 53.95 16.6 53.8 15.75 52.25 11.85 52.25 11 52.6 9.05 53.45 6.7 55.4 2.5 58.2 1.05 61.45 0.15 63.35 0 63.8 0.05 64.75 0.4 65.15 0.7 65.8 1.45 71.65 9.85 75.75 17.6 77.55 22.8 78.2 26.1 78.2 26.6 78.25 26.85 78.4 27.7 78.4 28.9 78.45 29.15 78.4 30.7 78.8 30.95 79.3 31.3 80.1 32.05 80.4 32.45 81.2 34.1 81.7 36.75 81.5 40.15 96.15 41.15 127.5 41.15 135.85 43.25 144.25 46.4 146.3 43.25 148.35 44.8 149.9 45.25 151.15 45.3 152.3 45.55 152.8 45.85 153.1 46.1 153.4 46.5 153.55 46.9 153.6 47.45 157.85 47.7"/>
  </g>
</g>
</svg>