<?xml version="1.0" encoding="utf-8"?>
<!DOCTYPE svg PUBLIC "-//W3C//DTD SVG 1.1//EN" "http://www.w3.org/Graphics/SVG/1.1/DTD/svg11.dtd">
<svg version="1.1" xmlns="http://www.w3.org/2000/svg" width="1152" height="422" viewBox="0 0 1152 422">
<g>
<rect fill="#F9F2DE" width="1152" height="422" />
</g>
<g transform="scale(0.97,0.97)">
<g transform="translate(75.7,60.4)">
    <path stroke="none" fill="#CC3300" d="M113.85 245.4 L112.85 247.45 121.25 251.55 122.05 251.7 122.25 251.7 127.7 252.85 128 252.85 132.65 253.7 135.8 253.85 136.05 253.9 137.15 253.85 137.55 253.75 137.9 253.7 141.35 251.4 143.2 250.55 149.45 249.5 149.55 248.45 149.9 247.35 150.55 246.3 150.95 245.8 151.5 245.3 152.55 243.95 153.6 242.2 153.85 240.25 153.8 239.4 153.6 238.75 153.2 238.1 152.8 237.65 152.15 237.2 151.5 236.95 151 237 150.6 237 150.6 237.05 149.8 237.1 149.1 236.95 148.9 236.95 148.05 236.65 147.9 236.5 146.15 235.5 144.2 233.8 142.65 233.8 140.05 234.15 137.9 235 137.1 235.5 136.4 236.15 135.85 236.95 132.95 236.65 131.75 236.35 129.35 235.45 128.25 235.2 127.25 235.15 126.4 235.35 125.65 235.65 125.1 236.2 124.65 237 124.35 238 122.55 238.35 120.85 238.95 119.3 239.75 116.35 242.1 113.85 245.4 M183 96.85 L179 98 175.35 99.5 174.4 100.3 173.95 100.7 173.7 101.25 172.85 103.6 172.8 104.25 173.05 106.6 173.5 108.35 173.6 111.75 173.45 112.8 173.45 113.2 173.15 114.6 172.6 115.85 172.45 116.1 172.05 117 171.2 117.85 171.2 118 170.75 118.4 170.3 118.85 171.2 119.4 171.9 120.05 172.4 120.8 172.6 121.7 172.6 122.6 172.45 123.7 171.4 126.2 170.3 126.2 170.8 126.4 171.55 127 171.9 127.4 172.25 128.3 172.4 128.8 172.45 129.3 174.5 130.85 176.05 131.3 176.65 131.4 178.05 129.15 180 126.85 180.5 126.4 181.35 125.55 183.05 124.35 183.95 124.05 183.95 123.7 184.2 122.95 184.65 121.9 186 119.85 186.9 119.15 187.6 118.3 187.95 117.1 188.15 115.7 195.45 110.5 195.7 109.9 196.4 108.55 198.75 105.1 199.6 104.2 200.9 102.1 201.7 100.3 201.95 98.45 201.9 97.65 201.7 96.85 190.75 96.1 183 96.85 M214.8 49.9 L215.25 49.85 215.85 52.15 216.3 53.15 216.8 54.05 218 55.35 219.45 56.15 218.7 57.9 218.7 58.1 217.5 60 215.9 61.7 215 62.5 214.8 62.6 214 63.4 212.1 64.45 211.5 64.9 207.05 66.85 206.35 67 206.2 67.15 205.35 67.5 201.7 68.65 201.7 69.7 183.95 71.8 173.5 77.05 171.4 84.35 170.9 85.3 170.65 86.25 170.6 87.15 171.15 88.65 171.75 89.35 172.5 90 173.5 90.6 177.65 90.6 179.75 89.55 203.75 86.4 208.2 86.65 210 87.2 210.6 87.6 210.95 88 211.1 88.55 213.2 86.4 215.25 88.55 216.1 88.35 220.1 88.3 221.55 88.5 223.25 88.95 224.3 89.5 224.85 89.85 225.7 90.6 226.95 90.85 230.6 92 235.1 94.25 239 97.2 242.45 101.05 242.4 101.15 242.25 108.15 242.2 108.2 242.2 109.9 242.05 110.6 242 110.75 242 111.25 241.8 112.1 241.8 112.4 241.6 113.15 241.45 113.4 241.4 113.6 241.35 113.6 241.35 114.05 241.3 114.5 241.15 114.9 241.1 115.4 240.75 116.1 240.55 116.4 240.35 116.75 239.4 117.2 238.75 117.8 238.4 118.3 238.3 118.85 221.25 131.6 214.9 135.1 210.1 136.65 197.5 142.9 196.4 144.35 194.35 145.7 187.05 148.15 183.9 150.45 182.35 151 181.55 151.2 180.8 151.25 174.5 154.4 173.9 154.4 172.55 154.75 164.55 159.8 163.1 160.4 162.45 160.6 162 160.65 163.55 163.25 163.7 163.7 163.7 163.75 163.9 164.1 164 164.5 164.05 164.85 173.5 165.9 181.8 167.95 189.15 171.1 188.15 172.15 193.35 180.5 187.05 187.85 186.6 188.25 186.2 188.7 185.5 189.3 185.3 189.55 184.35 190.15 183.85 190.4 183.35 190.65 182.75 190.8 182.6 190.8 182.25 190.95 181.65 191.05 181.1 191.15 179.95 191.1 179.6 191.05 179.3 191.05 178.7 190.95 177.65 193.55 176.65 195.15 175.85 195.4 175.2 195.7 174.7 196.05 173.85 196.8 173.7 197.3 173.5 198.3 166.65 205.3 166.25 205.85 165.85 206.25 165.6 206.65 165.35 206.95 165.25 207.25 165.1 207.45 165.1 207.65 167.8 208.95 168.9 209.35 174.2 210.5 177.35 210.8 194.6 211.05 197.95 211.4 203.75 212.75 206.2 213.75 209.3 215.55 211.1 217.1 213.7 217.2 215.05 217.45 215.55 217.65 216 217.85 216.35 218.15 217.8 218.5 218.1 218.5 219.15 218.65 219.75 218.6 219.9 218.5 220.4 218.5 220.75 218.35 220.95 218.35 221.55 218.15 222 218.6 223 219.25 223.6 219.4 224.05 219.45 224.65 219.45 225.7 219.15 226.7 220.95 226.85 221.1 227.8 222.95 227.9 223.3 227.9 223.35 228.1 223.7 228.85 225.95 228.95 227.15 228.9 227.6 228.85 227.85 228.85 228.15 228.75 228.3 228.65 228.55 228.45 228.95 228.25 229.1 228.15 229.25 227.85 229.6 227 230.1 222.6 233.8 221.55 233.5 219.8 233.25 218.5 233.25 217.65 233.5 217.4 233.8 213.7 234.35 212.25 234.15 211.1 233.8 209.45 233.9 207.9 234.35 206.35 235 204.85 235.9 201.65 239.05 200.1 239.8 198.6 240.1 190.2 244.25 184.95 250.55 183.9 254 181.8 258.1 174.5 268.3 164.05 273.55 151.5 275.65 137.9 275.65 119.1 272.5 101.35 266.25 89.85 251.55 89.6 250.25 89.6 248 90.15 246.25 90.6 245.5 91.2 244.75 91.95 244.25 91.95 238 96.1 232.9 101.5 227.9 106.65 224.7 109.15 223.85 111.6 223.35 112.85 223.35 139 211.85 141.6 211.55 142.45 211.25 142.8 211.05 143.2 210.85 147.35 207.65 150.5 185.7 144.75 188.6 144.05 188.9 143.4 189.1 142.75 189.15 141.6 189.1 141.05 188.9 135.85 194.1 133.8 195.25 131.9 195.85 130.15 195.8 128.55 195.15 127.95 195.5 127.6 195.65 127.4 195.65 127.4 195.7 127.3 195.8 125.9 195.85 124.55 195.45 124.2 195.25 124.1 195.25 122.25 194.1 121.4 193.25 118.1 190.5 117.05 189.9 114.9 174.2 122.25 170.1 129.55 164.85 130.5 164.95 131.4 164.95 131.5 165 132.45 164.85 132.9 164.65 133.45 164.55 134.25 164 134.35 163.9 135.15 163.4 136.4 162.1 136.85 161.7 137.35 160.25 138.15 159.2 138.95 158.8 139.3 158.6 139.75 158.45 141.9 158.35 142.45 158.4 143.2 158.6 145.65 156.65 147.7 154.4 148.05 154.1 148.3 153.7 149.2 152.55 151.45 149 151.65 148.5 152.55 147.05 143.2 138.7 140.5 135.5 139.6 133.95 138.95 132.45 138.5 130.8 138.4 129.25 138.5 127.7 139 126.2 138.2 125.75 137.55 125.25 137.05 124.45 136.2 122.35 135.85 119.5 135.85 117.8 135.25 117.35 134.6 117.05 133.9 116.9 133.2 117 132.3 117.15 130.5 118.1 Q130 118.5 129.55 118.85 L127.5 121.05 125.65 122.45 124.7 122.9 123.8 123.1 123 123.1 122.25 123 102.4 138.7 101.35 138.7 100.85 139 100.75 139.2 100.5 139.4 100 140 99.75 140.4 99.35 140.75 83.55 159.3 82.5 160.65 82.5 162.75 79.65 166.15 75.2 170.1 72.5 170.2 66.85 171.1 64.3 170.75 61.85 169.8 59.55 168.15 57.45 165.9 51.2 156.45 51.2 137.65 58.5 130.3 66.85 126.2 71 133.5 70 135.55 77.35 138.7 86.7 135.55 89.25 133.75 90.45 133.1 91.65 132.65 92.2 132.45 93.3 132.2 94.95 132.2 95.5 132.25 96.1 132.45 103.45 128.25 110.8 123 112.4 123.3 114.15 123.25 115.05 123.05 118.1 122 118.8 121.25 120.2 120.05 121.5 119.2 122.7 118.85 123.3 118.85 123.4 118.5 124.25 117.9 133.75 114.7 133.85 114.4 134.05 114.15 134.4 113.55 134.5 113.15 135.05 111.95 135.4 110.3 135.4 110.15 135.55 109.8 136.05 107.05 136.15 104.75 136.2 104.6 136.65 99.95 136.8 91.2 136.85 90.6 133.95 89 132.15 88.55 131.65 88.55 131.45 88.85 131.25 89.2 130.8 89.8 130.45 89.95 130.1 90.2 129.85 90.25 129.3 90.6 129 90.6 128.25 90.8 127.35 90.8 127.15 90.85 124.35 90.6 118.1 94.8 109.7 97.9 101.35 103.15 94.15 104.85 90.95 106.1 89.9 106.85 89.15 107.55 88.8 108.35 64.75 115.7 54.3 122 45.95 125.1 43.9 124.05 43.3 124.35 42.75 124.7 41.85 125.05 41.65 125.25 41.3 125.3 40.4 125.6 39.15 125.85 36.4 125.75 35.95 125.65 34.9 125.5 22.95 122 22.1 120.6 21.45 120.05 20.8 119.65 19.95 119.2 17.85 118.85 15.4 118.8 14.25 118.65 12.45 118.05 11.65 117.55 11.15 117.05 10.7 116.4 10.45 115.7 1 112.55 0.4 105.85 0 104.2 15.6 101.05 30.25 99 48.05 90.6 56.4 89.55 64.75 86.4 79.4 83.3 79.85 83.9 80.1 84.1 80.45 84.3 81.05 84.4 81.7 84.3 82.35 83.9 83.05 83.3 84.65 81.25 86.55 81.1 90.85 80.3 98.5 77.65 104.45 74.9 105.2 75.35 106 75.6 107.6 75.7 109.15 75.1 111.5 73.4 112.9 72.55 113.6 72.3 114.2 72 115.4 71.8 116 71.8 116.7 71.5 120.05 70.85 122.15 70.75 122.15 70.65 123.05 70.65 124.2 70.5 124.6 70.5 124.95 70.3 125.1 70.3 125.5 70.15 125.65 70.15 126.4 69.7 136.85 61.35 135.85 28.95 135.45 27.95 135.35 27.05 135.35 26.65 135.45 26.35 135.85 25.85 134.9 23.05 133.7 20.95 130.75 17.35 122.95 9.7 122 8.3 120.6 5.45 120.2 4.1 120.15 2.8 120.85 1.8 121.65 1.05 121.95 0.7 122.3 0.45 123.6 0 124.25 0.05 124.85 0.3 125.4 0.75 127.25 1.15 144.65 1.8 147.25 2.3 149.8 3.5 150.95 3.8 151.45 3.7 151.6 3.6 151.85 3.5 152.2 3.25 152.55 2.8 153.25 2.6 154.1 2.5 154.8 2.6 155.6 2.75 156.35 3.05 158 4.1 158.8 4.9 160.7 5.65 160.9 5.65 161.6 5.85 161.75 5.85 162 5.9 162.45 5.95 163.9 5.65 164 5.55 164 5.45 164.2 5.45 164.55 5.3 165.1 4.9 172.45 13.25 176.65 21.65 177.3 22.4 177.75 23.3 178.05 24.15 178.15 25.25 178.05 26.3 177.75 27.5 175.25 32.9 174.35 35.95 174.2 37.55 174.35 38.9 174.5 39.4 173.55 40.7 172.9 42.15 172.5 43.65 172.4 45.35 172.5 47.05 173.55 50.9 174.5 52.95 174.5 53.85 174.85 55.25 175.25 55.8 175.7 56.1 176.2 56.25 176.85 56.25 177.65 56.15 178.4 53.2 178.7 50.9 178.7 50.15 179.05 49.05 179.45 48.8 179.85 48.6 180.4 48.55 181.05 48.6 181.8 48.85 182.35 48.05 183.05 47.5 183.85 47 185.6 46.5 187.85 46.5 189.15 46.7 189.35 47.35 189.75 47.9 190.15 48.25 190.65 48.5 191.85 48.4 193.35 47.75 193.8 47.5 194.7 47.35 195.15 47.5 195.45 47.65 195.8 47.95 196.1 48.3 196.45 48.85 198 48.4 199.6 48.3 201.1 48.4 202.75 48.85 204.6 49.55 205.7 49.8 205.9 49.8 206.15 49.85 206.35 49.8 206.5 49.7 206.65 49.7 207 49.55 207.2 49.55 207.25 49.45 207.6 49.25 207.95 48.85 210.85 49.9 211.85 50.1 213.55 50.15 214.4 50 214.8 49.9"/>
  </g>
<g transform="translate(467.5,51.7)">
    <path stroke="none" fill="#CC3300" d="M252.55 63.75 L252.55 63.8 252.75 64.15 252.85 64.5 252.95 64.85 252.4 64.85 251.55 65.1 251.1 65.55 250.85 66.4 250.85 66.9 252.95 68 242.5 75.3 242.5 76.3 240.35 78.4 240.75 78.4 241.5 78.55 241.65 78.65 241.7 78.8 241.7 78.95 241.4 79.5 240.75 80.25 240.4 80.55 240.05 80.7 239.6 80.8 239.2 80.8 238.7 80.65 238.35 80.5 238.3 80.5 239.75 76.35 240.35 75.3 242.2 74.1 242.55 73.75 242.6 73.65 242.95 73.45 243.7 72.9 244.3 72.15 244.65 71.65 244.85 71.5 244.9 71.3 245.25 70.75 245.6 70.05 247.15 69.2 248.7 67.9 251.85 63.8 250.85 60.65 252.4 63.25 252.55 63.75"/>
    <path stroke="none" fill="#CC3300" d="M237.25 82.6 L228.9 86.8 227.85 86.8 235.15 80.5 237.25 82.6"/>
    <path stroke="none" fill="#CC3300" d="M155.1 72.9 L153.9 72.65 152.65 72.65 151.2 72.9 121.25 85.75 133.75 83.6 143.2 79.5 145.25 79.5 147.4 78.4 149.55 78.2 152.05 77.6 157.8 75.3 155.7 73.15 155.1 72.9 M226.55 48.5 L226.4 49 225.9 49.85 225.2 50.55 224.85 50.75 224.8 50.85 224.45 51.2 224.25 51.2 223.35 51.65 222.8 51.8 222.6 51.8 222.25 52 212.15 53.35 211.7 53.3 211.25 53.3 204.85 52.3 196.45 53.35 186 58.55 174.5 62.75 174.2 65.3 173.95 66.2 173.7 66.55 173.2 67.65 173.1 68.9 173.35 70 173.65 70.4 174 70.75 174.5 71.1 186.95 68.85 187.4 68.75 187.85 68.7 187.95 68.55 187.95 68.5 188.15 68.5 188.5 68.4 188.8 68.15 189.6 67.7 190.5 67.45 191.35 67.45 192 67.7 192.35 68 204.85 64.85 222.6 61.65 224.1 60.9 226.85 60.15 229.2 60.15 230.2 60.45 231.15 60.9 232.05 61.65 232.75 61.35 234.85 60.9 238.65 60.5 239.85 60.15 240.7 59.4 241.4 58.55 244.55 58.55 244.25 59 244.15 59.9 244.25 60.35 244.45 60.65 244.75 61 245.1 61.3 245.6 61.65 246.65 61.65 246.95 62.6 246.95 63 246.9 63.5 246.75 63.85 246.45 64.2 246.1 64.4 246 64.5 245.6 64.85 244.8 64.3 244.1 64.05 243.35 63.85 242.7 63.8 242.05 63.85 241.5 64.05 240.9 64.3 240.35 64.85 226.8 68 224.7 66.9 223.85 68.35 222.35 69.5 221.3 70 220.7 70.15 220.2 70.4 217.4 71.1 212.75 71.35 210.6 71.8 209.35 72.65 209.05 73.15 191.25 78.4 173.5 81.55 172.15 83.55 171.9 84.15 171.6 84.6 171.4 85.4 171.4 85.75 170.55 85.45 168.5 85.2 167.25 85.35 166.65 85.45 166.2 85.75 165.15 86.1 164.05 86.25 163.5 86.2 163 86.1 162 85.75 159.05 86.35 156.7 87.25 155.7 87.8 154.15 89.1 153.65 89.95 109.75 104.55 96.15 109.75 96.15 111.85 95.15 111.45 94.3 111.35 93.5 111.45 93 111.85 90.85 112.6 88.85 112.9 89.85 113.95 88.85 114.7 88 115 87.6 114.9 87.25 114.7 86.95 114.35 86.7 113.95 86.45 114.05 86 114.35 58.5 128.55 34.45 143.2 26.15 147.4 14.4 149.95 8.85 150.5 6.05 150.2 5 149.95 4.2 149.5 3.65 149.1 3.25 148.55 2.85 147.8 2.3 145.7 2.05 141.15 1 139.55 0.45 139.15 0 139 0.3 138.8 0.65 138.6 0.95 138.35 1.3 138.2 1.65 137.65 1.8 137.55 2.3 136.9 2.45 136.2 2.6 136 2.9 135.05 3.05 133.95 3.2 131.7 3.35 130.8 3.65 130 4.65 128.7 6.3 127.8 7.3 127.55 9.9 127.85 13.9 127.75 18.25 127 19.65 126.5 25.6 123.95 39 116.1 48.8 111.4 50.45 110.95 51.2 110.8 62.7 106.6 67.15 104.5 68.75 103.45 68.85 103.25 70.05 102.45 68.95 101.95 66.85 101.5 65.85 101.45 64.8 102.2 63.7 102.65 62.65 102.75 62.1 102.6 61.65 102.45 61.55 102.9 61.35 103.15 61.25 103.25 61.2 103.25 61.2 103.45 59.8 104.5 57.5 105.55 54.35 106.6 54.25 106.1 54.15 105.75 54 105.45 53.8 105.25 53.45 105.15 52.7 105.25 51.7 106 51.2 106.4 50.15 106.85 49.1 106.9 48.55 106.8 48.1 106.6 42.85 107.7 64.8 95.1 76.3 90.95 76.7 90.4 77.6 89.55 78.05 89.35 78.4 89.1 79.05 88.85 79.4 88.85 79.4 88.8 80.3 88.8 81.2 88.7 81.55 88.55 81.9 88.5 82.2 88.4 82.55 88.35 83.3 87.65 83.35 87.4 83.5 87.2 83.55 87 83.55 86.8 85.9 86.6 86.85 86.45 87.25 86.35 87.75 86.25 89.05 85.55 89.2 85.35 89.45 85.15 89.85 84.7 107.65 76.3 108.65 78.4 120.2 71.1 134.8 64.85 134.8 66.9 148.4 58.55 146.1 56.9 144.5 55.35 143.5 53.8 143.25 53 143.2 52.3 150.5 50.15 157.8 50.15 159.9 45.45 160.1 43.5 160.05 42.6 159.9 41.85 145.25 44.95 125.45 52.3 103.5 61.65 102.4 63.25 101.6 63.75 101.35 63.8 93 64.85 84.65 70.05 81.55 66.9 82.2 66.55 82.4 66.4 82.65 66.25 82.95 65.9 83.05 65.55 82.95 65.1 82.65 64.7 82.2 64.2 81.65 63.85 81.55 63.8 83.6 60.65 84.15 59.2 85.25 57.5 85.7 57.05 86.7 56.45 89.95 46.05 90.55 45.15 90.9 44.95 91.15 44.2 91.45 43.55 91.8 43 92.55 42.2 93.05 42 94.05 41.85 94.55 43.25 95.7 44.9 96.15 45.3 97.15 46.05 148.4 30.35 159.9 29.3 161.6 27.2 162.7 25.3 163.2 23.55 163 21.95 154.3 22.45 147.95 22.3 142.35 21.15 138.95 19.7 135.85 17.85 134.4 16.65 131.8 14.05 130.6 12.6 130.5 11.2 130.15 9.9 128.8 7.35 126.5 4.75 123.3 2.15 123.3 1.05 131.7 0 139 2.15 139.9 2.2 140.75 2.35 141.5 2.65 141.75 2.85 142.1 3.15 145 3.45 147.6 3.35 148.15 3.25 148.75 3.2 149.2 3 149.75 2.9 150.7 2.55 151.1 2.3 151.55 2.15 151.55 2.1 151.75 2.1 152 2 152.1 1.9 152.1 1.85 152.25 1.85 152.25 1.65 152.35 1.65 152.45 1.5 152.5 1.25 152.5 1.05 152.55 1.05 153.5 2.25 153.7 2.45 153.9 2.6 154.4 2.85 154.7 2.85 155.05 2.8 155.15 2.6 155.35 2.5 155.7 2.15 157.8 1.05 162 1.05 162.7 0.8 164 0.55 165.1 0.55 165.85 0.8 166.2 1.05 173.5 0 180.85 0 180.65 0.8 180.75 1.6 181.1 2.45 181.85 3.35 183.9 5.25 188.45 8.25 189.9 9.8 190.5 10.85 190.7 11.45 190.75 11.95 190.75 12.5 190.5 13.6 189.95 14.65 189.15 15.7 189.15 15.9 189.2 16 189.3 16.35 189.45 17 189.45 17.55 189.4 18 189.25 18.1 189.2 18.1 189.2 18.3 189.05 18.4 188.9 18.6 188.55 18.75 188.15 18.75 188.15 18.85 186 27.2 194.4 28.2 202.8 30.35 203.25 30.15 203.85 30.1 206.75 30.35 207.55 30.5 211.4 31.75 217.4 34.55 226.8 48.1 226.55 48.5"/>
    <path stroke="none" fill="#CC3300" d="M107.3 173.65 L106.65 174.2 106.35 174.6 105.95 175 105.6 175.6 105.15 176.2 100.9 183.7 100.3 185.05 99.3 188.55 99.1 188.95 99.1 189.1 99 189.7 97.15 193.4 98.3 194.7 99.55 195.7 100.9 196.3 101.6 196.5 102.4 196.55 113.4 187.1 116.1 183.95 116.8 182.8 117 182.25 117.05 181.9 107.65 173.55 107.3 173.65 M177.7 119.95 L178.7 119.2 176.65 118.15 175.6 120.2 175.8 120.35 176.1 120.5 176.45 120.5 176.9 120.45 177.7 119.95 M179.95 101.45 L183.95 101.8 185.35 102.15 186 102.45 191.25 102.45 202.8 113.95 205.35 113.65 205.85 113.45 206 113.35 206.25 113.3 206.6 113.05 206.95 112.9 217.4 113.95 222.7 121 225.35 124.25 226.1 124.95 226.4 125.2 226.55 125.4 226.8 125.45 227.6 126.4 227.9 126.85 228.15 127.4 228.4 128.35 228.4 128.8 228.3 129.05 228.3 129.35 227.9 130.15 227.15 131.05 226.1 131.9 225.75 132.05 224.7 132.75 217.4 141.15 211.1 149.5 214.3 152.65 217.4 150.5 218.1 152.35 218.4 152.8 218.9 153.4 219.1 153.6 219.45 153.65 222.6 153.65 222.15 154.35 221.9 155.05 221.85 155.65 222.05 156.25 222.35 156.7 222.95 157.15 226.45 158.35 227.55 159.15 227.85 159.5 228.05 159.95 227.85 160.95 233.05 166.2 235.5 167.7 236.15 168.3 236.6 168.75 236.95 169.35 237.1 169.8 237.25 170.4 239.85 171.4 240.7 171.9 241.4 172.45 240.35 175.05 239.35 176.65 214.3 185.05 213.2 182.9 206.95 194.4 206.2 194.95 205.65 195.65 205.25 196.4 205.1 197.3 205 198.2 205.15 199.3 205.9 201.75 205.9 215.35 204.85 227.85 204.85 232.05 204.55 232.75 204.3 234.05 204.3 235.15 204.55 235.9 204.85 236.25 201.7 245.65 204.85 264.45 209.05 264.45 209.05 289.6 200.65 292.7 197.55 284.35 193.35 275.95 191.25 262.4 193.35 261.3 193.05 260.85 192.55 259.75 192 257.55 191.25 245.65 189.15 226.85 189.2 226.4 189.3 226 189.5 225.05 189.6 223.15 189.7 222.9 189.6 222.55 189.6 221.65 189.15 217.45 190.75 214.75 191.25 213.25 191.25 195.5 181.85 197.6 171.4 198.6 163 193.4 163.15 192.6 163.15 191.75 162.9 190.95 162.5 190.25 161.05 188.65 160.05 187.8 158.9 187.1 158.95 186.75 159.05 186.45 159.05 185.9 159.1 185.8 159.1 185.05 158.9 183.2 157.8 179.8 157.05 178.7 156.1 176.7 155.95 175.85 155.85 174.9 156 174.05 156.3 173.25 156.75 172.45 158.95 170.3 159.75 169.1 160.05 168.5 160.4 168 160.45 167.65 160.85 166.75 161.05 165.55 161.05 164.35 161 163.95 161 163.7 160.95 163.1 164.15 160.5 166.45 158.05 167.8 155.75 168.15 154.65 168.25 153.65 169.8 153.25 173.2 151.8 178.8 147.9 182.9 144.25 182.95 143.25 183.15 142.45 183.4 141.65 183.95 141.15 185.25 140.1 186.25 139 186.85 137.95 187 137.4 187.1 136.95 186.25 136.65 184.95 136.4 183.9 136.4 183.15 136.65 182.9 136.95 178.75 137.9 177.7 138 174.95 138.85 174.3 139.25 173.15 140.15 172.75 140.6 172.45 141.15 148.9 144.5 147.95 144.8 147.4 145.35 145.85 145.7 144.5 145.8 143.25 145.7 142.1 145.35 124.7 155.55 120.45 158.55 120.2 158.9 134.8 177.7 135.4 177.95 136.5 178.7 137.05 179.25 137.95 180.5 138.7 182.1 139.7 186.1 140.05 191.3 139 199.65 136.85 200.35 134.75 201.5 132.65 202.95 130.6 204.9 130.75 205.65 130.75 206.15 130.8 206.4 130.7 206.7 130.6 207.05 130.3 207.75 129.8 208.35 129.6 208.45 129.5 208.65 129.2 209 128.45 209.4 128.4 209.5 Q120.25 215.05 112.05 220.55 L106.1 223.4 101.35 224.75 100.3 222.7 99.3 226.85 98.25 226.35 96.35 225.7 94.8 225.4 93.5 225.5 93 225.8 91.5 226.1 90.3 226.05 89.8 225.85 89.45 225.55 89.1 225.15 88.85 224.75 79.4 224.75 73.15 214.3 73.7 211.4 73.5 210.15 72.85 208.2 72.75 206.9 73.05 205.85 73.7 205.15 74.2 204.9 88.85 171.45 89.3 170.95 89.85 170.65 90.3 170.45 90.9 170.4 88.85 165.15 88.3 164.55 88 164.1 87.85 163.5 87.8 163.05 87.85 162.45 88 161.95 88.3 161.45 88.85 160.95 89.2 159.45 89.3 158.05 89.2 156.85 88.85 155.75 87.65 153.65 86.65 150.45 86.55 148.35 87.15 145.25 88 143.15 89.25 141 90.05 139.95 90.9 139 102.4 124.4 105.55 118.15 108.3 120.35 110.55 122.75 112.25 125.1 113.4 127.5 113.85 129.85 113.9 130.7 113.85 131.45 113.15 134.25 111.05 138.8 102.4 150.5 105.55 152.65 108.65 152.65 110.25 151.6 110.75 150.75 110.8 150.5 110.8 150.2 110.9 150.05 111.25 149.75 111.9 149.6 112.85 149.5 115.95 146.55 119.1 144.25 117.5 143.2 117.15 142.65 117.05 142.2 117.75 142.6 119.3 143.25 120.1 143.45 121.65 143.5 123.3 143.2 125.3 141.85 126.35 141.35 127.15 141.15 127.5 141.15 127.5 140.9 127.65 140.75 127.85 140.5 128.25 140.25 128.65 139.9 129.85 139.15 130.6 138.8 131.4 138.25 146.3 130.7 152.55 125.45 153.4 126.9 154.05 127.75 154.65 128.3 155.1 128.55 155.7 128.75 156.75 128.55 157.5 126.75 157.8 125.45 161.4 125.15 161.95 125.15 165.1 124.4 165.65 124.05 165.9 123.85 166.2 123.75 167.15 123.05 167.5 122.55 167.65 122.2 167.8 122.15 168.25 121.25 166.2 116.05 165 115 164.8 114.4 164.85 113.95 165.1 113.35 165.55 112.9 166.25 112.35 167.2 111.85 167.2 104.55 168.75 104.75 169.5 104.7 170.35 104.5 171.85 103.65 173.5 102.45 174.45 101.9 176.1 101.25 177.4 101 178.35 101.15 178.7 101.45 179.95 101.45"/>
  </g>
<g transform="translate(879.15,82)">
    <path stroke="none" fill="#CC3300" d="M196.5 173.05 L196.5 155.3 170.35 169.9 156.6 171.85 151.3 173.2 149.3 173.95 147.9 174.7 147.35 175.15 162.05 190.8 167.25 191.9 172.45 192.35 177.65 191.9 182.95 190.8 184.25 190.2 185.7 189.25 188.9 185.85 196.5 173.05 M56.45 195 L54.4 192.95 43.95 201.25 44.1 202.65 44.05 203.25 43.9 203.85 43.45 204.3 43.25 204.5 43.05 204.75 41.8 205.45 40.2 206.75 Q39.9 206.9 39.65 207.1 L37.6 208.55 40.55 211.3 44.5 213.8 45.45 214.3 47.25 214.85 48.95 215.15 50.6 215.15 52.25 214.85 53.45 214.45 53.9 214.15 54.45 213.95 54.6 213.7 55.25 213.15 55.9 212.2 56.3 211.05 56.55 209.75 56.45 206.5 56.45 195 M76.2 11.4 L74.75 13.1 74.2 14.15 69 21.45 68.4 22 67.35 23.6 66.9 24.6 66.85 24.85 66.65 25.15 66.05 25.9 63.75 27.8 63.6 28.75 63.25 29.8 61.7 31.9 60.7 32.5 59.4 34 58.55 36.1 58 36.4 57.5 36.8 56.45 37.95 55.4 39.4 54.4 41.35 53.2 43.15 51.95 44.5 50.9 45.05 50.7 45.05 50.7 45.15 50.6 45.25 50.2 45.25 50.2 45.3 49.85 45.45 49.15 45.55 49.05 46.95 48.95 47.6 48.9 47.75 48.9 48.25 48.7 48.6 48.7 48.8 48.6 49.3 48.5 49.5 48.3 50.2 47.85 50.85 47.55 51.1 47.3 51.4 46.95 51.5 46.75 51.5 46.75 51.55 46.65 51.7 46.3 51.75 46.1 51.75 46 51.8 46 56 45.7 57.25 45.45 59.55 45.45 61.65 45.7 63.5 46 64.35 49.15 64.35 58.55 53.85 66.9 43.4 67.35 43.05 67.55 42.85 67.75 42.65 68.5 41.6 68.5 41.2 68.55 41.2 68.65 40.85 68.65 40.4 68.7 40.4 68.85 40.05 69 38.25 69.5 36.75 70.65 34.65 71.3 34 71.95 33.55 72.65 33.45 73.4 33.55 74.2 34.05 73.9 31.6 73.6 30.25 73.2 28.8 81 11.35 81.5 8.95 80.2 9.2 78 10.1 76.2 11.4 M150.55 135.4 L150.65 135.95 150.7 136.6 150.65 137.25 150.5 138 149.65 139.7 148.15 142.2 147.9 143.5 147.9 145 148.15 146.9 148.4 147.95 147.2 150.25 145.35 155 144.3 159.7 144 164.45 144.25 166.8 146.95 166.45 147.9 166.2 151.55 164.45 155.2 161.5 158.85 157.35 158.85 156.75 159.2 155.6 160.05 154.3 161.3 152.85 162.45 151.8 162.95 151.45 163.1 151.2 163.35 151.05 163.8 150.55 164.55 149.4 165.2 147.95 163.9 146.8 162.9 145.5 162.4 144.7 161.7 143.2 161 140.6 160.8 135.45 161 134.4 161.15 131.8 161.25 125.75 161.05 124.05 160.75 122.8 160.35 121.6 159.95 120.75 150.55 135.4 M127.2 134.05 L126.1 131.75 125.4 129.15 121.3 132.25 99.35 157.35 99.5 159.25 99.45 159.25 99.45 160.1 99.35 160.55 99.3 161 98.45 162.4 98.25 162.55 98.15 162.7 97.85 163.05 97.2 163.65 97.5 167.55 98.5 171.15 100.1 174.35 102.45 177.25 114.95 177.25 117.85 175.15 120.4 172.75 121.5 171.4 122.5 169.9 124.35 166.75 126.7 159.1 127.3 154.75 127.55 149.05 127.7 148.7 127.95 148.4 128.05 148.05 128.05 147.85 128.15 147.85 128.25 147.75 128.25 147.3 128.3 147.3 128.4 146.95 128.55 146.15 128.5 146 128.5 145.6 128.4 145.15 127.95 142.95 127.55 141.7 127.55 134.4 127.2 134.05 M161 80.55 L154.7 85.25 150.3 91.8 149.95 92.5 148.95 94.1 148.5 95.2 148.4 95.7 142.15 110.35 142.15 111.2 142.5 112.65 142.95 113.15 143.35 113.45 143.9 113.65 145.3 113.45 145.3 112.45 153.5 106.35 157.5 104.25 163.4 102.25 164.35 102 168.2 101.6 171.1 101.7 172.95 102 176.7 103 177.75 103.65 179.65 105.35 181.1 107.4 182.25 109.85 182.9 112.8 183.1 116.05 182.65 121.7 181.9 126 182.8 125.8 184.95 125.9 187.05 126.65 188.15 127.3 190.25 129.15 197.55 134.4 197.55 130.2 196.35 116.25 194.1 100 191.3 89.45 191.45 88.85 191.45 88.3 191.5 88.2 191.45 87.5 191.25 86.8 190.85 85.95 190.85 85.9 190.45 85.05 190.45 85 189.2 83.15 187.6 79.25 187.25 77.4 187.15 75.8 181.9 71.7 180.65 71.7 178 72.1 171.95 74.15 161 80.55 M106.75 4.15 L109.9 6.5 112.75 9.3 113.95 11.05 114.4 13.15 114.25 15.55 113.45 18.1 112.1 20.95 110 23.9 104.15 30.45 100.35 34.05 100.4 34.85 100.55 35.55 100.85 35.95 101.1 36.05 101.4 36.1 100.5 36.35 98.8 37.1 Q97.9 37.65 96.95 38.15 L95.05 39.45 92 42.05 90.15 43.4 88.35 44.2 86.75 44.5 85.7 47.1 84.65 48.65 83.9 49.15 82.7 50.15 81.85 51.2 81.7 51.8 81.5 52.85 75.25 60.2 73.15 61.85 71 62.75 68.9 62.9 67.85 62.65 66.05 61.95 65.25 61.9 63.7 61.95 62.85 62.1 62.15 62.4 60.65 63.3 60.95 65.15 60.95 65.9 60.85 66.25 60.85 66.65 60.7 67 60.7 67.2 60.5 67.45 60.4 67.75 60.15 67.9 60 68.15 57.6 70.5 56.8 71.55 56.45 72.35 56.45 72.7 54.4 75.3 51.45 77.9 45.35 81.75 44.8 81.95 44.7 82.05 42.85 83.15 29.3 92.55 32.7 91.85 35.95 91.5 36.6 91.5 47.25 85.2 52.75 82.65 55.3 81.65 62.35 79.7 64.45 79.4 66.45 79.3 68.35 79.35 70.15 79.6 71.8 80 72.6 80.3 74.8 81.3 75.3 81.6 75.8 81.95 76.25 82.4 76.85 83.4 77.35 84.65 77.45 86 77.35 87.65 76.3 91.5 73.2 116.6 72.9 117.5 72.8 119.2 73 120.55 73.3 121.05 73.65 121.5 74.2 121.85 75.45 120.9 76.55 119.75 78.1 117.6 78.35 117.15 78.65 116.8 79.8 114 79.8 113.8 80.2 113 80.35 112.4 80.35 112.2 80.5 111.85 80.85 110.75 81 110.1 81.5 108.25 101.7 90.15 107.3 85.65 112.85 82.3 118.2 79.95 122.3 79 130.65 82.1 131.6 82.75 132.6 83.25 133.55 83.55 134.05 83.6 134.45 83.6 134.55 83.65 135.4 83.55 135.55 83.4 136.25 83.25 137.1 82.75 137.5 82.4 145.3 76.85 145.3 79 150.55 74.8 152.25 74.1 152.55 73.85 152.65 73.75 152.65 73.7 152.85 73.7 153.4 73.2 153.8 72.05 153.8 71.35 153.65 70.6 179.8 63.3 188.15 64.35 193.4 65.05 194.45 65.35 195.75 65.5 197.15 65.95 198.55 66.65 201.7 69.05 206.95 74.8 211.95 84.2 217.35 101.85 218.45 107.2 220.15 131.5 220 157.9 217.85 173.3 217.75 173.8 217.7 174.4 217.3 176.5 214.95 184.2 213.75 187.15 213.6 187.6 212.2 190.8 200.4 201.8 196.7 204.5 195.35 205.2 194.8 205.4 180.8 208.55 178.15 208.25 177.25 207.95 176.7 207.55 173.75 205.95 172.5 205.55 171.9 205.45 171.45 205.45 161 204.45 142.15 179.3 141.1 176.65 140.05 175.15 139.2 175.25 138.55 175.4 137.9 175.7 136.85 176.7 136.15 178.3 135.9 179.3 126.45 187.7 114.95 188.75 102.45 188.75 98.45 186.55 94.85 183.9 93.15 182.25 90.15 178.65 87.5 174.45 85.25 169.7 83.45 164.35 81.5 155.3 86.75 142.7 95.15 131.2 101.35 119.85 104.05 115.5 104.7 114.75 105.2 114 106.2 112.85 106.65 112.45 106.65 112.4 107.05 112.4 107.55 112.35 107.95 112.2 108.4 112.15 Q108.75 112 109.15 111.8 L109.4 111.55 109.8 111.4 111.55 110.35 112.9 109.25 112.45 108.45 112.2 107.75 112.15 107 112.3 106.35 112.6 105.7 113.2 105.15 113.95 104.55 115.85 103.7 116.2 103.5 116.55 103.3 117.05 102.75 117.25 102.2 117.25 101.4 117.1 100.65 116.85 100.2 116.05 98.8 112.6 96.65 111.1 95.85 108.5 95.05 107.35 95.05 106.35 95.2 105.6 95.7 86.65 110.1 83.35 114 82.7 115 81.5 118.1 81.2 119.2 81.1 122.6 81.5 124.95 80.5 134.4 76.3 141.7 71.45 164.95 71 169.6 70.55 172.2 69 176.15 69 210.7 63.45 226.85 61.3 231.45 59.55 233.7 57.45 233.35 55.4 232.35 53.25 230.7 49.2 226.1 47.3 224.5 45.55 223.5 44.7 223.25 43.95 223.2 33.45 211.75 13.6 211.75 7.3 206.5 6.9 204.85 6.75 204 7 201.6 8.3 198.2 8.75 197.3 33.45 169.9 42.85 157.35 46 154 48.05 151.35 49.05 149.25 49.2 148.5 49.2 148.2 49.15 147.95 38.7 154.2 20.9 163.65 19.85 163.65 18.15 164 16.85 164.85 16.4 165.35 15.95 166 15.65 166.8 14.8 173.65 15 178.7 15.65 180.9 15.95 181.5 16.3 182 16.75 182.5 15.65 183.5 7.3 173.05 2.75 168.45 1.8 167.05 0.4 164.2 0.05 162.85 0 161.55 0.4 159.4 1.15 157.35 2.3 155.35 5.7 151.45 10.6 147.65 24.5 139.05 28 136.05 30.3 133.35 52.25 121.85 54.4 119 55.1 117.5 55.6 116.05 55.95 112.75 55.4 109.25 55.4 98.8 54 98.9 52.65 99.2 50.55 99.95 49.9 100.35 49.15 100.7 44.65 104.3 43.95 105.15 39.4 109.55 38.1 110.6 35.6 112 34.45 112.35 33.45 112.45 28.75 113.55 24.3 114 22.05 113.85 17.75 113.1 15.65 112.45 14.65 111.8 13.8 111.05 13 110.1 12.2 108.4 11.7 106.3 11.5 103 13.1 100.35 13.45 99.4 13.6 98.8 25.1 87.3 37.6 76.85 40.3 75.15 42.05 73.45 42.5 72.45 42.85 71.5 42.85 71.2 42.95 70.95 43 70.5 42.85 69.55 33.45 68.5 24.05 65.35 10.5 49.75 10.65 49.15 10.65 48.95 10.85 48.6 11.05 47.55 11.05 46.35 11 45.8 10.95 45.65 10.95 45.25 10.55 44 9.25 41.55 8.35 40.3 26.1 50.75 26.4 49.45 27.7 47.2 29.85 45.45 32.7 43.95 36.45 42.85 36.6 42.7 38.2 42.3 39.35 41.75 39.75 41.65 41.05 41.05 42.1 40.35 42.5 40 42.6 39.9 42.95 39.7 43.1 39.35 43.25 39.3 43.5 38.95 43.95 38.25 46.25 35.35 46.85 34.1 47 33.5 47.05 33 47.55 32.2 48.7 31.05 50 30.2 51.45 29.85 52.25 29.85 59.55 20.4 67.95 12.1 68.95 10.55 71.3 8.3 73.9 7 75.3 6.7 76.8 6.6 78.4 6.85 79.8 5.6 81 4.2 81.45 3.35 81.65 2.9 81.85 2.5 82.6 0.6 92.75 0 95.05 0.15 99.35 0.95 103.25 2.25 106.75 4.15"/>
  </g>
</g>
</svg>