<?xml version="1.0" encoding="utf-8"?>
<!DOCTYPE svg PUBLIC "-//W3C//DTD SVG 1.1//EN" "http://www.w3.org/Graphics/SVG/1.1/DTD/svg11.dtd">
<svg version="1.1" xmlns="http://www.w3.org/2000/svg" width="1152" height="422" viewBox="0 0 1152 422">
<g>
<rect fill="#F9F2DE" width="1152" height="422" />
</g>
<g transform="scale(0.97,0.97)">
<g transform="translate(69.35,63.4)">
    <path stroke="none" fill="#CC3300" d="M181.9 12.95 L181.9 13.95 181.7 13.8 181.75 13.35 181.9 12.95"/>
    <path stroke="none" fill="#CC3300" d="M34.1 183.55 L34.35 182.75 34.55 182.4 34.85 182.1 34.55 184.35 34.2 183.85 34.1 183.55"/>
    <path stroke="none" fill="#CC3300" d="M179.85 21.25 L179.85 19.2 179.25 19.25 178.2 19.7 177.75 20.25 178.2 20.65 179.25 21.15 179.85 21.25 M148.45 42.2 L147.4 40.05 145.35 42.2 148.45 42.2 M221.6 28.55 L221.35 28.8 221.25 29.1 221.35 29.85 221.8 30.7 222.7 31.7 222.55 30.7 222.4 29.85 222.05 29.1 221.6 28.55 M234.3 35.75 L234.9 39.4 235.2 40.05 234.35 40.15 233.65 40.3 232.95 40.6 231.65 41.6 230.45 43.25 230 44.25 226.3 45.05 223.75 45.3 223.15 45.05 221.9 44.8 220.6 44.8 219.2 45.05 216.55 45.95 215.05 46.05 214.45 45.8 213.95 45.45 213.55 44.9 213.25 44.25 205.65 43.75 203.2 43 202.4 42.6 201.8 42.2 199.7 43.2 198.6 40.05 196.55 45.3 195.6 44.3 194.95 43.45 194.7 43 194.6 42.75 194.4 41.65 194.3 41.25 194.15 40.85 193.95 40.6 193.6 40.3 192.85 40.05 192.35 40.05 191.85 41 191.05 41.95 190.95 41.95 190.55 42.35 188.4 43.75 183.05 45.45 178.8 46.4 178.8 45.3 177.85 46.4 177.75 46.45 177.55 46.8 176.15 48.15 174.8 49.05 174.35 49.4 172.5 50.5 172.1 54.05 123.55 54.05 125.55 53.65 127.6 52.65 130.7 50.5 135.15 48.4 138 46.4 140.85 38.05 141.15 36.35 140.85 34.95 140.5 34.3 140.1 33.8 140.6 30.1 140.45 28.7 139.8 26.5 139.55 24.6 139.55 23.1 139.8 21.8 140.1 21.25 141.15 18.35 141.4 17.1 141.4 16 141.15 15 140.9 14.55 140.7 14.15 140.3 13.75 139.95 13.45 139.1 12.95 139.45 11.85 139.55 10.85 139.45 9.8 139.15 8.85 140.1 10.8 140.1 10.75 140.25 10.75 140.5 10.7 140.7 10.55 140.7 10.5 140.85 10.5 140.85 10.35 140.9 10.35 141.05 10.15 141.1 9.9 141.1 9.75 141.15 9.75 140.1 7.7 143.45 6.1 147.4 3.5 152.65 3.5 154.05 2.95 155.7 2.55 156.85 2.45 156.85 2.9 156.9 3.3 157.1 4 157.35 4.4 157.55 4.5 157.85 4.55 157.85 4.5 158 4.5 158.25 4.45 158.45 4.3 158.45 4.25 158.6 4.25 158.6 4.1 158.65 4.1 158.8 3.9 158.85 3.65 158.85 3.5 158.9 3.5 158.9 1.45 159.95 2.45 160.7 1.5 161.4 0.8 161.95 0.3 162.55 0.05 163.05 0 163.2 0.05 163.45 0.25 163.8 0.7 164.15 1.45 164.65 0.9 165.8 0.25 166.45 0.05 167.8 0 168.5 0.05 169.35 0.35 171.25 1.6 171.3 1.6 172.1 2 172.2 2 173 2.45 173.7 2.6 174.4 2.65 174.55 2.6 175.05 2.6 175.65 2.45 177.75 5.6 176.65 6.6 178.15 8.45 178.75 8.9 179.2 9.2 180.25 9.7 180.85 9.75 181.25 10.2 181.55 10.7 181.55 10.85 181.6 11.1 181.6 11.6 181.4 11.95 181.05 12.3 180.75 12.4 180.5 12.6 179.85 12.95 181.7 13.8 181.5 15.1 181.5 15.75 181.7 16.45 182.15 17.75 183 19.2 183.65 21.1 183.65 21.5 183.7 21.95 183.7 22.8 183.45 23.5 183.1 24.2 182.9 24.3 182.55 24.85 181.9 25.45 180.5 27.35 179.15 29.75 178.8 31.1 178.8 31.7 179.5 32.15 181.6 33.3 182.2 33.45 182.4 33.45 182.5 33.5 183.4 33.75 184 33.8 184 34.9 184.35 34.3 186.15 33.25 189.35 32.15 196.55 30.7 197 29.95 198.3 28.75 199.85 27.9 201.75 27.55 202.8 27.55 204.7 28.25 204.85 28.25 205.6 28.45 205.75 28.45 206 28.5 206.45 28.55 207.9 28.25 208 28.15 208 28.1 208.15 28.1 208.55 28 209.1 27.55 213.25 26.5 213.5 27.15 213.85 27.7 214.25 28.05 214.8 28.25 215.95 28.2 218.4 27.05 220.2 26.55 221.1 26.5 221.8 26.55 222.5 26.75 223.15 27.05 223.75 27.55 224.3 27.35 226.1 27.55 229.45 29 234.2 31.7 234.3 35.75"/>
    <path stroke="none" fill="#CC3300" d="M163.65 92.05 L162.8 91.8 162.15 91.8 161.9 91.95 161.7 92.1 161.55 92.4 161.4 92.65 161.25 93.45 161.35 94.55 161.8 96.7 161.75 96.2 161.85 95.7 162.6 94.05 163.05 93.55 164.15 92.35 163.65 92.05 M132.75 77.7 L132.75 79.8 131.75 80.85 130.7 80.85 130.7 81.9 130.65 82.15 130.45 82.45 129.9 83.2 127.6 85.05 127.75 86.05 127.95 86.5 128.35 87.1 129.3 88.15 130.7 89.2 132.75 82.95 135.9 82.95 135.6 82.85 135.4 82.75 135.15 82.4 134.95 81.65 134.9 80.85 134.85 80.5 134.35 79.5 133.25 78.15 132.75 77.7 M171.9 106.4 L172.35 107.45 172.5 108.05 166.4 108.05 168.65 107.45 171.45 105.9 171.9 106.4 M194.7 80.6 L194.2 80.2 193.65 80 192.5 79.95 191.25 80.35 190.3 80.85 189.25 81.9 188.9 81.35 188.5 81 188.1 80.7 187.65 80.55 187.05 80.45 185.75 80.55 184.45 81 183.9 81.25 183.55 81.3 182.7 81.6 181.35 81.8 180.9 81.8 179.85 81.9 176.65 83.95 173.55 81.9 173.55 82.95 173.5 82.95 173.5 83.15 173.3 83.4 173 83.5 172.85 83.5 172.85 83.55 172.7 83.65 171.7 83.85 171.2 83.85 171.05 83.9 170.55 83.9 170.4 83.95 170.8 84.5 171.2 85.25 171.45 87.1 170.95 87.35 170.1 88.1 169.6 89.15 169.35 90.45 169.35 91.3 169.3 91.5 168.8 92.6 168.45 92.95 167.3 94.4 168.1 94.7 168.4 94.9 168.7 95.2 168.9 95.4 169 95.7 169.05 96.05 169.05 96.5 168.75 97.3 168.25 98.3 166.2 100.7 165.8 101.75 165.7 102.8 165.8 103.85 166.2 104.9 166.6 105.45 166.7 105.75 166.75 106.15 166.6 107.05 166.2 108.05 136.8 108.05 135.35 107.75 134.7 107.45 134.25 107.15 133.7 106.7 133 105.55 132.75 104.9 132.45 102.25 132.2 101.3 131.75 100.7 128.15 96.6 127.6 95.45 122.35 99.65 120.05 100.2 119.15 100.55 117.85 101.3 117.45 101.8 117.2 102.25 117.15 102.8 115 104.9 115.35 105.6 115.55 106.4 115.4 107.2 115.2 108.05 95.4 108.05 96.5 107 97.25 105.9 97.85 106.5 98.1 106.7 98.45 106.85 98.8 107 98.8 106.9 98.85 106.9 98.95 106.85 99 106.75 99.15 106.7 99.25 106.35 99.25 105.9 99.3 105.9 99.3 103.85 99.8 103.85 100.2 103.9 100.9 104.1 101.25 104.4 101.4 104.6 101.45 104.9 106.65 95.45 112.95 87.1 113.3 85.55 113.4 84.2 113.3 82.95 112.95 81.9 113.1 81.9 113.35 81.95 113.85 82 114.7 82 115.4 81.8 115.7 81.55 116.05 81.35 116.25 81 116.5 80.7 116.55 80.5 116.65 80.3 116.7 80.1 116.85 79.9 116.85 79.6 117 78.9 117.15 77.7 121.25 73.55 121.25 69.35 121.55 68.35 121.55 67.85 121.5 67.5 121.3 67.1 121.05 66.75 120.65 66.45 120.25 66.2 113.55 70.4 112.9 70.85 112.25 71.15 111.7 71.5 111.2 71.75 110.8 72.05 110.4 72.15 110.15 72.35 109.95 72.4 109.8 72.45 104.55 76.65 101.9 76.9 100.95 77.2 100.4 77.7 98.15 78.8 97.5 78.95 96.25 79 95.65 78.95 95.15 78.8 89.95 83.95 88.4 85.25 87.05 86.25 85.8 86.85 85.2 87.05 84.7 87.1 74.25 94.4 74.25 93.4 73.3 94.4 72.65 95.45 72.3 96.55 72.2 97.6 69.65 98.9 65.75 101.5 63.15 104.1 62.4 105.4 61.85 106.7 61.75 108.05 13.95 108.05 12.6 105.9 10.7 104.85 8.4 102.9 7.35 102.25 6.25 101.85 5.25 101.75 5.25 100.7 5.75 100.6 6.1 100.45 6.25 100.45 7.35 99.65 5.25 96.55 5.25 95.45 4.75 94.9 4.45 94.4 4.25 93.9 4.05 91.95 3.7 90.75 3.3 90.2 2.95 89.8 2.55 89.45 2.15 89.2 2.3 87.25 2.25 86.45 2.1 85.8 1.65 85.15 1.25 84.7 0.65 84.25 0 83.95 1.6 81.3 2.1 80 2.15 79.8 5.25 79.8 5.25 80.85 5.7 80.55 6.55 80.3 7.4 80.3 8.05 80.55 8.4 80.85 10.4 81.95 11 82.15 11.45 82.2 11.9 82.2 12.25 82.1 12.6 81.9 14.65 83.95 23.05 87.1 31.4 89.2 32.4 88.15 34.55 92.35 34.55 91.5 34.9 90.2 35.7 89.15 36.25 88.75 36.9 88.4 37.65 88.15 38.85 88.1 39.95 88 40.9 87.8 41.3 87.7 41.8 87.65 43.1 86.9 43.25 86.7 43.5 86.5 43.7 86.25 43.9 86.1 44.6 85.8 46.1 85.55 47.4 85.55 48.6 85.8 49.15 86.1 49.25 85.1 49.6 84.2 50.15 83.45 51.4 82.6 51.95 82.45 54.7 81.95 56.5 81.9 57.2 82.5 57.3 82.55 57.5 82.65 57.95 82.85 58.55 82.95 58.6 81.9 58.95 80.95 59.55 80 61.3 78.5 64.1 77.2 65.85 76.65 66.8 76.85 67.7 76.85 67.8 76.9 68.75 76.85 69.45 76.65 69.75 76.65 71 76 71.45 75.85 72.7 74.9 73.2 74.6 73.7 74.05 75 73.4 76.55 73.1 78.45 73.25 79.5 73.55 94.1 63.1 96.7 63.6 97.2 63.55 97.6 63.45 98.3 63.1 99 62.55 100.45 61.75 101.75 61.25 102.9 61 103.5 61 117.15 54.7 117.15 55.2 117.2 55.6 117.35 56.3 117.65 56.65 117.85 56.75 118.15 56.85 117.9 55.85 118 55.05 118.35 54.4 118.65 54.15 119.15 54.05 172.1 54.05 171.45 59.95 169.35 68.35 169.55 69.8 169.55 70.1 169.8 72.4 169.9 73.55 169.8 73.55 169.8 74.4 169.7 75.3 169.6 75.65 169.55 76 169.4 76.3 169.35 76.65 170.4 76.65 169.55 77.15 169.25 77.35 169.05 77.7 169 78.2 169.05 78.4 169.35 78.8 171.45 80.85 171.7 80.1 172.1 79.45 172.6 78.9 173.9 78.05 175.6 77.7 177.45 77.65 180.1 77.2 184 75.65 184.5 76.55 185.3 77.25 185.65 77.5 186.1 77.7 187.1 77.95 188.25 77.95 189.45 77.7 192.35 76.65 214.3 76.65 214.35 77.05 214.55 77.4 214.85 77.6 215.35 77.7 215.45 77.7 215.8 77.9 216.2 78 216.55 78 216.9 77.95 216.95 77.85 217.1 77.75 217.1 77.6 217.15 77.6 217.25 77.5 217.4 77.05 217.4 76.65 217.45 76.65 224.75 74.6 232.05 77.7 232.95 78 233.8 78.4 234.35 78.9 234.9 79.55 235.2 80.2 235.35 81 235.2 82.95 235.8 82.45 236.95 81.6 238.6 80.95 239.1 80.85 239.6 80.85 240.45 80.95 240.8 81.1 241.5 81.6 242.5 82.95 245.1 83.2 245.6 83.3 246.35 83.65 246.7 83.95 248.7 85.1 249.3 85.25 249.75 85.35 250.2 85.35 250.55 85.2 250.9 85.05 255.1 89.2 255.9 90.7 256.2 91.35 256.35 92.05 256.45 93.3 256.15 94.4 247.75 99.65 238.4 99.65 235.2 96.55 231.05 99.65 227.45 99.15 225.7 99.15 224.3 99.35 223.75 99.65 223.65 99.15 223.45 98.85 223.1 98.65 222.7 98.6 222.2 98.9 221.8 99.25 221.25 99.5 220.8 99.8 220.2 99.95 220.05 99.95 219.7 100.15 218.5 100.35 217.1 100.35 216.85 100.3 215.6 100.3 213.25 99.85 213.05 99.85 212.25 99.65 212 100.1 211.85 100.55 211.35 101.3 210.65 101.85 210.4 101.9 209.9 102.25 209.6 102.25 209.35 102.3 209.05 102.3 208.8 102.4 207.7 102.4 206.35 102.15 204.95 101.75 204.4 102.65 203.9 104.25 203.85 104.9 199.7 102.8 199.6 102.9 199.6 103.45 199.5 103.75 199.45 104.1 199.25 104.3 199.15 104.6 198.85 105.1 198.4 105.4 198.1 105.5 197.85 105.7 197.5 105.75 197.2 105.85 196.65 105.85 196.55 105.9 195.7 105.6 193.65 105.4 192.4 105.5 191.3 105.9 192.35 103.85 191.55 103.55 190.25 103.3 189.15 103.3 188.4 103.55 187.9 104.25 187.25 106.35 187.15 107 187.35 107.15 187.45 107.4 187.45 107.5 187.4 107.5 187.4 107.7 187.25 107.7 187.25 107.75 187 107.85 186.65 107.9 186.3 108.05 172.5 108.05 172.5 107.45 172.85 106.2 173.65 104.9 174.9 103.5 175.65 102.8 176.15 103.2 176.7 103.5 177.95 103.55 179.3 102.95 180.85 101.75 185.05 101.75 186.1 97.6 189.25 98.6 195.5 92.35 196.55 93.4 196.6 92.8 197.1 91.75 197.6 91.3 198.6 92.35 199.15 91.8 199.9 91.5 200.8 91.35 201.8 91.3 201.8 90.75 202.15 89.95 203 89.45 204.15 89.2 204.95 89.2 205.15 89.15 205.45 89.05 205.75 88.85 206.15 88.7 208.05 87.1 207.5 86.05 207.25 84.95 207 82.95 204.95 83.95 204.3 83.2 203.85 82.85 203.05 82.3 201.5 81.85 200.2 81.65 196.3 81.75 195.5 81.9 195.15 81.15 194.7 80.6"/>
    <path stroke="none" fill="#CC3300" d="M186.1 108.75 L186.35 110.05 186.8 111.1 187.65 111.9 188.15 112.25 192.35 111.15 195.5 113.25 196.55 112.25 198.6 114.3 199.3 114 200.6 113.9 201.2 114 201.7 114.2 202.1 114.45 202.45 114.85 202.8 115.35 203.5 117.2 204.35 118.25 204.55 118.4 204.95 118.5 195.5 133.1 194.5 132.05 181.9 143.55 181.1 143.6 180.25 143.9 179.45 144.4 177.9 145.9 176.35 148.3 175.65 149.8 175.65 155.05 177.2 157.65 177.35 158.15 177.35 158.2 177.55 158.55 177.65 158.9 177.75 159.25 178.65 162.05 153.95 162.05 151.6 159.25 152.65 158.2 150.55 156.15 150.55 160.3 148.25 159.65 146.65 158.95 146.05 158.5 145.65 158.05 145.4 157.6 145.35 157.15 147.95 155 149.55 153 149.6 153 150.4 153.35 150.6 153.35 150.8 153.4 151.3 153.45 152 153.35 152.1 153.25 152.1 153.2 152.3 153.2 152.65 153 152.55 152.4 152.35 151.95 152 151.35 151.6 150.85 151.85 150.3 152.6 149.1 153.65 147.8 154.95 146.4 155.8 145.7 159.15 143.55 160.25 142.5 161.05 141.5 162.05 141.5 165.15 137.3 166 135.65 166.45 134.1 166.5 132.6 166.2 131.05 164.7 130.5 163.35 130.2 161.05 130 158.4 132.4 154.5 135.2 152.35 136 151.75 136.2 150.55 136.3 150 136.3 149.55 136.25 149 136.7 148.5 137.8 148.45 138.35 147.4 137.3 138 144.6 123.4 149.8 120.25 151.95 120.2 151.4 120.1 150.95 119.75 150.05 119.4 149.65 118.6 149.05 118.15 148.8 117.3 148.5 115.25 148.3 114 148.4 113.4 148.5 112.95 148.8 112.7 148 112.65 147.15 112.7 146.35 112.9 145.6 113.35 144.4 114.25 143.2 115 142.5 115.4 142 115.9 141.6 116.65 140.8 117.1 139.95 117.2 139.9 117.6 139.05 117.6 138.8 117.65 138.55 117.7 138.05 117.7 137.15 117.5 136.1 117.15 135.2 119.2 137.3 120.25 135.2 118.9 134.1 118.45 133.55 118.15 133.05 117.9 132.45 117.85 132 117.9 131.5 118.15 131.05 119.95 130.85 120.3 130.75 120.3 130.7 120.75 130.7 121.1 130.6 121.1 130.5 121.5 130.5 122.6 129.8 122.8 129.6 123.05 129.4 123.4 128.95 124.1 128.65 125.4 128.5 126 128.65 126.45 128.8 126.85 129.1 127.2 129.45 127.6 130 127.65 129.45 127.8 129 128.1 128.5 129.1 127.7 130.75 127.1 131.75 126.85 133.5 126.15 133.75 125.9 134.15 125.75 134.8 125.25 135.55 124.1 135.6 123.75 135.7 123.45 135.8 123.1 135.9 122.8 135.9 123.9 136.25 126 136.65 126.85 137.1 127.5 137.65 128.1 139.1 128.95 139.1 118.5 138 118.5 138.25 115.6 138 113.25 137.2 111.4 136.55 110.65 135.9 110.1 136.95 108.05 186.1 108.05 186.1 108.75"/>
    <path stroke="none" fill="#CC3300" d="M119.15 54.05 L120.05 53.75 121.25 53.7 123.15 54.05 119.15 54.05"/>
    <path stroke="none" fill="#CC3300" d="M15.7 110.1 L13.95 108.05 61.75 108.05 60.3 108.5 58.9 109.3 58.75 109.5 58.55 110.1 57.5 110.85 56.4 111.15 55.85 111.05 55.35 110.85 54.4 110.1 45 116.4 41.85 116.4 40.85 117.15 40 117.4 39.6 117.3 39.25 117.15 38.95 116.85 38.7 116.4 37.55 117.6 37.2 117.8 37 117.8 37 117.85 36.9 117.95 36.3 118.2 35.6 118.2 35.25 118.15 34.95 118.15 34.6 117.95 34.55 117.95 34.2 117.85 33.45 117.4 29.3 114.3 28.3 116.4 23.05 112.25 19.9 112.25 19.35 111.65 19.1 111.15 18.9 110.6 18.85 110.1 15.7 110.1"/>
    <path stroke="none" fill="#CC3300" d="M92 110.1 L95.4 108.05 115.2 108.05 113.55 110.05 110.8 112.25 101.45 131.05 102.45 131.05 100.95 133.15 99.85 135.1 98.6 138.05 98.25 138.6 98.2 138.85 97.7 139.6 96.55 140.75 95.15 141.5 92.45 144.55 91.6 146.1 91 147.75 89.95 149.5 88.85 150.85 87.8 151.65 86.8 151.95 86.8 151.05 86.7 151.8 86 154.35 85 156.2 83.7 158.2 83.05 158.7 81.95 159.85 81.55 160.35 81.1 160.8 80.2 162.05 38.95 162.05 39.15 160.65 39.8 158.45 40.75 156.65 41.4 156 42.1 155.5 42.9 155.05 42.9 152.95 43.35 152.95 43.8 152.9 44.2 152.75 44.7 152.7 45.4 152.35 45.7 152.1 46.05 151.95 46.75 149 47.5 146.8 48.1 145.7 48.15 146.1 48.35 146.4 48.65 146.55 49.15 146.7 50.7 145.6 50.7 145.45 50.75 145.45 50.9 145.35 51.05 145.1 51.15 144.85 51.25 144.6 49.15 143.55 49.35 143.55 49.45 143.6 49.8 143.75 50.1 143.75 50.45 143.8 50.7 143.75 51 143.75 51.45 143.55 51.65 143.2 51.75 143.15 51.95 142.8 52.05 142.75 52.05 142.55 52.25 142.15 52.25 141.6 52.3 141.5 56.5 136.25 56.8 135.2 57.65 133.45 58.95 132.15 60.65 131.3 61.75 131.05 76.35 119.55 78.45 122.65 79.5 118.5 81.55 118.5 81.6 118.7 81.6 119.05 81.5 119.9 80.5 122.4 79.55 123.9 75.3 130 74.3 129.7 72.65 129.6 72.1 129.7 71.65 129.85 71.35 130.15 71.15 130.5 71.1 131.05 71.75 131.5 72.25 132 72.55 132.45 72.65 133.05 72.55 133.55 72.25 134.1 70.35 135.9 69.3 137.2 68.8 138.25 68.75 138.65 68.8 139 69.05 139.35 63.8 143.55 63.25 144.25 62.45 145.7 61.95 147 61.75 148.2 61.75 148.8 62.7 149.65 63.75 150.35 65.25 150.8 65.85 150.85 75.3 141.5 83.7 130 84.2 128.2 85.65 125.45 87.4 123.7 88.5 123.1 89.65 122.75 91 122.65 90.8 122.2 90.7 120.95 90.75 120.1 91.25 118.25 91.95 116.75 94.1 113.8 94.3 113.1 94.3 112.45 94.05 111.8 93.6 111.25 92.9 110.65 92 110.1"/>
    <path stroke="none" fill="#CC3300" d="M46.05 174.95 L46 174.6 45.85 174.35 45.5 173.9 44.8 173.3 43.9 172.8 45 175.95 46.05 174.95 M64.85 167.65 L64.85 169.65 64.9 169.05 65.1 168.55 65.85 167.65 64.85 167.65 M38.7 165.5 L38.95 162.05 80.2 162.05 79.85 162.45 79.65 162.85 79.5 163.15 79.5 163.45 78.45 162.4 74.25 167.65 71.1 166.55 59.6 182.25 58.8 181.5 57.35 180.45 56.05 179.9 55.5 179.85 54.9 179.9 54.4 180.15 51.25 186.45 40.8 185.4 38.7 186.45 35.6 181.2 35.15 181.6 34.85 182.1 35.6 175.95 36.65 176.55 36.7 176.55 37.05 176.7 37.25 176.7 37.35 176.8 37.7 176.9 38.45 177 39 176.9 39.3 176.8 39.65 176.7 39.9 176.55 40 176.4 40 176.35 40.2 176.35 40.8 175.95 38.45 174.95 37.9 174.65 37.35 174.25 37 173.9 36.6 173.05 36.4 172.55 36.55 171.45 37.15 170.4 38.1 169.2 38.7 168.65 37.65 166.55 38.7 165.5"/>
    <path stroke="none" fill="#CC3300" d="M171 194 L170.25 194.55 169.9 195.1 169.6 195.9 169.15 197.6 169.1 200.95 169.15 201.5 169.65 202.95 169.8 203.4 170.35 204.2 171.45 205.2 172.5 194.75 171.95 194.3 171.45 194.05 171 194 M178.8 200.2 L178.8 200 178.25 200 177.45 200.4 176.9 201.2 176.65 202.4 176.65 203.15 176.8 203.1 177.3 203.1 177.6 202.95 177.95 202.9 178 202.8 178.4 202.6 178.45 202.5 178.8 202.3 178.95 201.85 178.95 201.55 179.05 201.3 178.95 200.95 178.95 200.65 178.85 200.3 178.8 200.2 M155.7 168.95 L156.8 166.85 156.9 166.1 156.9 165.75 156.85 165.5 153.95 162.05 178.65 162.05 184 178.05 185.3 177.6 186.65 177.5 188 177.6 189.45 178 190.9 178.65 192.35 179.6 195.5 182.25 208.05 178.05 208.1 178.05 208.95 178.45 209.1 178.45 209.35 178.5 209.8 178.55 210.55 178.45 210.65 178.3 210.65 178.25 210.85 178.25 211.2 178.05 210.25 177 209.6 175.95 209.25 174.9 209.1 173.9 220.55 168.65 222.65 171.25 223.1 171.7 224.75 172.8 225.7 172.9 226.6 173.05 227.25 173.35 227.9 173.9 231.05 184.35 231.05 187.45 230.2 187.5 229.65 187.65 228.6 188.1 227.4 188.8 226.8 189.3 226.1 189.7 224.65 190.8 221.4 193.85 220.55 194.75 220.05 194.5 219.2 194.25 218.75 194.25 218.5 194.5 218.5 194.75 218.15 194.95 217.95 194.95 217.95 195 217.85 195.1 217.5 195.25 217.15 195.3 216.65 195.25 216.25 195.1 215.45 194.75 215.35 194.75 212.25 198.95 210.1 196.9 202.8 200 201.8 198.95 197.85 200.8 194.5 202.1 191.55 202.8 190.3 203.25 188.15 204.55 186.65 206.3 186.1 207.35 187.4 209.25 188.4 210.95 189 212.35 189 212.55 189.05 212.65 189.15 213 189.25 213.6 189.25 216.05 165.05 216.05 165.15 215.7 163.7 215.2 161.6 214.7 161.05 214.65 159.1 215.65 157.45 216.05 157.15 216.05 155.8 215.7 155.5 216.05 149.7 216.05 149.55 215.7 149.55 215.65 149.7 215.65 149.95 215.6 150.05 215.5 150.05 215.4 150.25 215.4 150.25 215.25 150.3 215.25 150.4 215.05 150.45 214.85 150.45 214.65 150.55 214.65 149.95 214.1 149.45 213.85 148.95 213.65 148.45 213.6 147.95 214.2 147.5 214.75 147.2 215.35 147.1 216.05 140.5 216.05 140.55 213.85 140.4 213 140.1 212.55 139 213.3 138.85 213.3 138.5 213.45 138 213.6 138 215.7 136.5 215.2 133.9 214.7 129.05 214.35 128.3 214.2 126.5 213.6 124.9 211 124.45 210.45 120.25 210.45 120.6 209 120.75 207.8 120.6 206.85 120.45 206.5 120.25 206.3 118.35 207.05 117.95 207.1 117.65 207.2 117.15 207.35 116.6 206.75 116.3 206.3 116.15 205.7 116.05 205.2 116.15 204.6 116.3 204.15 116.6 203.6 117.15 203.15 117.1 202.85 117 202.75 116.9 202.6 116.65 202.6 116.5 202.75 116.25 202.85 115 205.2 114 205.1 113.2 204.9 112.4 204.6 111.9 204.2 111.6 203.4 111.45 202.1 111.75 201 112.05 200.6 112.4 200.25 112.95 200 111.95 199.5 110.35 199 109.8 198.95 109.8 201.1 106.85 199.5 105.65 199.1 105.05 198.95 104.55 198.95 104.05 198.6 103.75 198.25 103.55 197.85 103.5 197.35 103.55 196.8 104.05 195.5 104.55 194.75 102.75 193.7 102.1 193.1 101.7 192.65 101.3 192.05 101.15 191.3 101.2 191.05 101.45 190.6 103.5 188.5 102.95 188.4 102.7 188.2 102.5 187.85 102.45 187.45 99.55 188.2 97.25 188.5 95.9 187.05 95.65 186.7 95.25 185.9 95.15 185.4 97.25 185.4 97.3 185.8 97.5 186.15 97.8 186.35 98.3 186.45 99.15 184.35 100.45 182.85 101.45 182.25 105.3 183.9 109.5 184.85 114.15 185 119.2 184.35 119.75 185.55 120.5 186.4 120.85 186.55 121.3 186.65 122.35 186.45 122.35 186.4 122.5 186.4 122.75 186.35 122.9 186.2 122.9 186.15 123.1 186.15 123.1 186 123.15 186 123.25 185.8 123.35 185.55 123.35 185.4 123.4 185.4 122.35 184.35 123.1 184.25 125.95 183.8 135.15 181.2 138 180.15 140.8 180.1 141.5 179.95 142.7 179.6 143.55 178.9 144.25 178.05 145.35 178.05 147.4 179.1 149.55 173.9 150.55 174.95 153.65 171.6 155.7 168.95"/>
    <path stroke="none" fill="#CC3300" d="M99.15 257.85 L99.3 256.5 98.75 257.05 97.95 258.5 97.25 260.6 98.1 259.9 98.8 259 99.15 257.85 M73.2 259.6 L73.25 258.8 73.4 258.15 73.7 257.5 74.7 256.45 76.35 255.65 77.35 255.4 77.35 255.35 78.25 255.35 79.15 255.25 79.5 255.15 79.85 255.05 80.15 254.95 80.5 254.9 81.25 254.2 81.3 253.95 81.45 253.75 81.55 253.3 86.8 253.3 87.05 252.55 87.45 252.05 87.95 251.75 88.6 251.7 89.25 251.75 90.05 252.05 90.95 252.55 92 253.3 92 253.25 92.2 253.25 92.4 253.2 92.6 253.05 92.6 253 92.75 253 92.75 252.85 92.85 252.85 92.95 252.7 93 252.45 93 252.3 93.05 252.3 96.45 251.25 Q96.7 251.05 97 250.9 L97.55 250.65 98.3 250.15 100.4 253.3 100.8 252.75 101.7 251.95 102.15 251.7 102.5 251.45 103.15 251.25 103.5 251.25 104.55 252.3 106.65 249.1 109.8 249.1 110.55 250.3 112.05 252.1 112.9 252.75 113.6 253.2 114.4 253.4 115.25 253.4 116.05 253.3 116.65 251.8 116.85 251.45 117.15 250.15 117.85 250.6 118.65 250.9 120.2 250.95 121.75 250.35 124.35 248.35 125.35 247.8 126.3 247.45 127.3 247.3 128.5 247.2 129 247.35 130.25 247.8 130.7 248.1 135.9 248.1 136.6 248.2 136.9 248.2 137.25 248.3 137.5 248.2 137.8 248.2 138.25 248.05 138.45 247.7 138.55 247.65 138.75 247.3 138.85 247.2 138.85 247.05 139 246.65 139 246.1 139.1 246 139.8 245.9 139.9 245.85 140.45 245.85 141.6 245.7 142.5 245.4 142.85 245.15 143.2 245 145.35 242.85 147.4 243.9 154.7 240.8 161.05 236.6 163.55 233.4 165.15 230.35 164.65 229.3 164.15 227.55 164.1 226.95 164.15 226.3 164.35 225.8 164.65 225.4 165.15 225.1 165.5 224.05 165.7 222.95 165.65 222.4 165.5 221.9 165.4 221.6 165.35 221.4 165.15 220.9 164.75 219.45 164.65 218.2 164.7 217.05 165.05 216.05 189.25 216.05 189.25 218.85 188.45 219.1 Q187.9 219.35 187.3 219.65 L186.45 220.5 186.3 220.95 186.1 221.95 187.4 222.5 187.95 222.85 188.4 223.25 188.7 223.6 189 224.1 189.15 224.55 189.25 225.1 188.95 226.05 188.7 227.7 188.7 229.05 188.95 230 189.25 230.35 189.25 243.9 186.1 246 186.05 250.05 185.95 250.95 185.8 251.3 185.75 251.3 185.75 251.7 185.65 252.05 185.55 252.05 185.55 252.45 184.85 253.6 184.65 253.75 184.45 254 184 254.35 176.85 263.9 175.95 264.8 175.95 264.9 175 265.7 174.7 265.8 174 266.35 173.4 266.5 172.9 266.75 171.75 267 170.6 267.05 170.25 267 169.95 267 169.35 266.95 169 267.6 168.8 267.8 168.7 268.1 168.35 268.45 168.15 268.6 168.05 268.7 167.6 268.7 167.35 268.65 167.15 268.65 166.7 268.35 165.7 267.4 165.2 267.1 164.75 266.95 164.4 266.85 164 266.95 163.65 267.1 163.35 267.4 163.1 267.95 162.05 267.65 160.3 267.4 159 267.4 158.15 267.65 157.85 267.95 155.85 268.7 154.2 269 152.75 268.7 152.1 268.35 151.6 267.95 150.55 268.75 149.45 269.25 148.4 269.3 147.85 269.15 146.6 268.7 145.3 268.6 144.2 268.85 143.8 269.15 143.45 269.5 143.2 270.05 133.85 267.95 124.45 267.95 123.75 265.9 122.85 264.25 121.7 262.85 120.25 261.7 120.9 264 120.9 264.45 120.95 264.9 120.95 265.8 120.75 266.45 120.6 266.55 120.55 266.55 120.55 266.75 120.4 267.1 120.2 267.1 120.2 267.15 119.85 267.5 119.5 267.7 119.2 267.95 118.15 267.65 114.25 266.95 113.95 266.95 112.9 267.1 111.05 267.15 110.3 267.1 109.5 266.95 108.25 266.3 107.7 265.85 106.65 266.95 103.5 264.8 94.1 264.8 93.75 264.5 93.55 264.45 93.05 264.5 92.7 264.7 92.45 265 92 265.85 90.65 264.4 90.4 264.05 90.05 263.25 89.95 262.75 89.6 262.2 89.3 261.85 88.95 261.55 88.6 261.4 88.1 261.25 87.2 261.4 86.8 261.7 86.8 262.75 85.75 261.15 85.15 260.75 84.7 260.6 83.7 261.7 81.55 259.6 81.5 259.6 81.5 260 81.45 260 81.45 260.45 81.3 260.8 81.25 261.15 81.15 261.2 81.1 261.3 80.95 261.4 80.9 261.5 80.65 261.6 80.5 261.6 80.5 261.7 80.15 260.85 79.4 259.55 78.3 258.5 77.05 257.7 76.35 257.5 73.2 259.6"/>
    <path stroke="none" fill="#CC3300" d="M140.1 217.8 L140.5 216.05 147.1 216.05 147.1 216.9 147.4 217.8 140.1 217.8"/>
    <path stroke="none" fill="#CC3300" d="M151.85 217.5 L150.55 217.8 149.7 216.05 155.5 216.05 153.7 217.8 153.7 216.7 151.85 217.5"/>
  </g>
<g transform="translate(472.7,57.5)">
    <path stroke="none" fill="#CC3300" d="M16.35 121 L17.15 120.95 18 121 18.8 121.25 20.4 119.7 20.85 119 21.1 118.35 21.1 117.7 20.95 117.15 20.45 116.55 19.85 116 21.4 115.7 22.95 114.95 27.2 110.7 27.6 110.45 27.9 110.15 28.95 109.7 29.55 109.5 30.2 109.45 30.8 109.5 31.35 109.75 46 98.25 46 102.45 46.55 103.1 47.2 103.55 47.95 103.85 48.85 103.95 49.7 103.85 50.85 103.55 61.7 98.25 69 93 77.35 87.8 84.65 84.7 89.9 84.7 59.6 103.5 58.7 103.55 57.4 104.05 56.15 105.05 55.6 105.4 55.15 105.85 53.2 108.2 52.25 109.75 51.45 109.8 50.6 110 49.8 110.3 48.25 111.3 46.7 112.95 46 113.95 45.35 115.35 44.65 116.55 44.2 117 43.95 117.2 43.75 117.4 42.05 118.85 38.95 121.95 38.7 122.3 31.35 128.55 31.35 131.7 29.25 132.4 27.8 133.15 27.2 133.75 27.35 135.2 27.2 135.75 26.9 136.35 26.35 136.85 26.2 136.85 26.2 136.9 26.05 137 25.75 137.25 24.05 137.95 20.4 145.2 19.75 147.05 19.45 148.55 19.55 149.95 19.85 150.5 18.35 151.05 15.75 152.65 14.6 153.65 11.45 155.2 8.35 155.7 4.3 151.5 3.65 150.45 3.25 149.4 3.1 148.85 3.1 148.4 1.7 146.75 0.35 144.35 0.15 143.5 0 141.85 0.15 140.1 0.35 139.2 1.15 137.4 2.35 135.65 3.1 134.85 2.7 133.75 2.65 132.75 2.8 131.75 3.35 130.85 4.1 129.95 6.65 128.3 8.35 127.5 8.8 127.2 9.65 127 10.5 127 11.15 127.2 11.5 127.5 10.8 128.3 10.35 129.1 10.25 129.95 10.45 130.85 10.8 131.75 11.45 132.75 13.6 134.85 15.45 134.65 15.8 134.55 15.8 134.45 16.2 134.45 16.55 134.35 16.55 134.3 17 134.3 18.05 133.6 18.2 133.35 18.45 133.15 18.8 132.75 17.75 130.1 17.2 129.15 16.75 128.55 14.6 128.55 14.15 128 13.85 127.5 13.65 126.9 13.6 126.45 13.8 125.9 13.85 125.45 13.85 124.95 13.8 124.6 13.6 124.2 13.3 123.85 12.95 123.55 12.55 123.3 13.25 122.55 14.8 121.5 16.35 121"/>
    <path stroke="none" fill="#CC3300" d="M70 174.9 L69.95 175 69 175.6 62.7 180.85 62.7 180.9 62.9 181.25 62.9 181.45 62.95 181.65 62.9 182.05 62.7 182.4 62.45 182.45 62.3 182.55 62.05 182.6 61.9 182.75 61.3 182.85 60.75 182.85 60.65 182.9 60.1 183.05 59.8 183.4 59.65 184.05 59.6 185 58.75 185.25 57.45 186.15 56.4 187.45 55.6 189.15 55.4 190.25 54.7 192 54.45 192.35 54.25 192.7 53.8 193.35 52.6 194.1 51.2 194.4 51.2 200.65 49.85 203.45 49.35 205.05 49.15 206.4 49.15 207 49.05 207.45 48.6 209.5 47.05 213.25 47.5 213.45 47.9 213.85 48.25 214.25 48.6 214.75 48.95 215.95 49.15 217.45 49.25 217.95 49.35 218.25 49.6 218.65 50.25 219.55 51.2 220.55 58.5 213.25 59 213.2 59.45 213 59.5 212.9 60.35 212.4 61.05 211.4 61.15 211.05 61.15 210.9 61.25 210.9 61.35 210.75 61.7 210.1 61.8 209.5 62.15 209.05 62.8 208.45 63.75 208 63.45 207.4 63.35 206.2 63.65 204.9 64.3 203.5 64.85 202.8 66.9 197.55 67.8 197.2 68.2 196.95 68.65 196.8 69.35 196.25 69.5 196.05 70 195.7 70.1 195.5 70.45 194.95 70.5 194.7 70.6 194.55 70.8 194.2 70.85 193.7 70.95 193.3 71.3 191.05 72.1 188.95 73.15 187.35 74.45 186.35 75.25 186.05 79.45 178.7 81.5 171.4 80.25 170.9 79.45 170.7 77.65 170.45 74.2 170.35 73.85 171.05 73.5 171.6 73.45 171.8 72.4 173.25 71.6 173.85 71.25 174 71.2 174.1 70.85 174.45 70 174.9 M157.65 161.1 L155.8 162.4 153.8 164.05 150.5 167.2 150.65 168.15 150.65 168.55 150.75 169.05 150.65 169.4 150.65 169.8 150.55 170.15 150.5 170.15 150.5 170.6 150.1 171.15 149.75 171.5 149.65 171.5 149.65 171.7 149.5 171.7 149.5 171.75 149.35 171.9 149.1 172.1 148.45 172.45 147.35 170.35 147.05 170.8 147 171.35 147.05 172.4 147.55 173.45 148.45 174.55 150.85 173.2 152.7 172.7 155.75 172.45 156.2 172.8 156.75 173.1 157.2 173.2 157.8 173.2 158.85 172.6 159.95 171.4 160.95 170.5 161.4 170.25 162 170.05 163.05 170 163.55 170.05 164.1 170.35 164.1 159.9 163.55 159.6 162.3 159.45 160.9 159.6 159.35 160.2 158.6 160.65 157.65 161.1 M219.5 54.35 L220.55 53.3 222.65 55.4 222.75 57.1 222.95 57.65 223.35 58.55 223.6 58.9 223.95 59.3 224.65 59.85 225.55 60.25 226.6 60.5 227.85 60.6 226.9 61.1 226.25 61.65 225.9 62.15 225.8 62.75 227.85 63.75 227.1 63.95 226.5 64.3 226 64.75 225.7 65.25 225.55 65.8 225.5 66.45 225.55 67.1 225.8 67.9 225.05 69.35 224.85 69.65 224.65 70 224.2 70.65 223 71.7 221.6 72.65 220.9 72.8 220.7 72.95 219.8 73.3 218.35 73.65 217.85 73.8 216.15 74 215.65 74.1 213.2 74.25 200.65 74.6 198.65 74.8 198.25 74.95 197.6 75.25 196.5 75.25 189.2 76.3 188.3 76.3 186.6 76.55 184.75 77 182.85 77.85 181.9 78.35 181.3 78.05 179.95 77.95 178.4 78.25 176.55 78.9 175.65 79.45 173.15 80.55 172.45 80.7 170.85 80.8 169.3 80.5 169.3 82.55 167.3 82.85 165.6 82.8 164.85 82.6 163.55 81.95 163.05 81.55 159.1 83.1 155.75 83.6 152.85 84.6 148.45 85.7 134.85 87.8 132.75 86.75 131.65 87.5 131.5 87.5 131.15 87.7 130.65 87.8 130.65 86.75 128.8 88.35 128.35 88.5 128.05 88.7 127.8 88.8 125.65 89.4 124.9 89.7 123.9 90.5 123.6 91 123.4 91.45 123.35 92 120.7 92.25 119.75 92.5 119.4 92.7 118.1 94.25 117.05 94.85 116.45 94.85 116 94.75 115.8 94.65 115.45 94.45 115 94.05 95.45 106.55 92.65 108.8 90.9 111.15 90.3 112.4 89.95 113.65 89.9 114.95 89 114.95 87.3 115.3 85.5 116.1 83.55 117.35 82.6 118.15 83.4 121.1 83.4 121.15 84.05 122.55 84.3 122.95 84.65 123.3 87.8 123.3 107.65 110.8 111.1 111.05 112.9 111.5 114.35 112.35 115 112.9 117.1 116 114.15 121.75 113.9 122.3 109.8 128.55 109.8 130 110.15 132.45 110.55 133.55 110.95 134.3 111.5 135 112.15 135.5 112.9 135.9 128.55 128.55 130.65 130.65 133.25 128.8 134.55 128.15 137.15 127.4 139.75 127.25 141.1 127.5 150.65 121.6 167.25 112.9 167.2 106.6 167 105.75 166.4 104.25 165.95 103.6 165.4 103.15 164.75 102.75 164.1 102.45 162.85 102.3 161.9 102.15 161.45 101.95 161.15 101.8 160.9 101.55 160.7 101.35 160.45 101 160.35 100.75 160.3 100.35 160.5 99.15 160.7 98.65 161 98.25 161.55 97.7 162.25 97.4 163.1 97.25 164.1 97.2 164.25 97.15 164.75 97.15 165.4 97 165.8 96.85 165.95 96.85 166.4 96.65 167 95.95 167.05 95.7 167.2 95.55 167.2 95.1 167.25 95.1 171.15 96.65 171.95 96.85 172.15 96.85 172.85 97 173.7 97.15 174.1 97.15 174.55 97.2 176.85 97.9 177.8 98.35 178.7 99 179.35 99.65 180 100.5 180.8 102.45 182.4 105.25 182.6 105.85 182.6 106.05 182.65 106.15 182.9 107.05 182.95 107.65 189.2 107.65 191.2 106.25 192.25 105.8 193.05 105.55 193.4 105.55 193.4 105.5 193.8 105.5 194.2 105.4 194.9 105.05 195.3 104.3 195.4 103.9 195.4 103.5 195.45 103.5 204.9 104.5 213.2 104.5 213.9 104.8 214.65 105.25 215.2 105.8 215.8 106.55 216.3 107.4 216.7 108.4 217.4 110.8 216.4 114.95 208 122.3 199.65 127.5 197.5 130.1 196.45 131 195.45 131.7 194.7 131.95 194.05 132.25 193.5 132.6 192.7 133.35 192.5 133.8 192.35 134.85 190.3 135.6 188.6 136.6 187.2 137.7 186 138.95 184.65 141 184.05 143.45 183.95 145.25 183.2 145.8 182.7 146.4 182.4 147 182.35 147.65 182.4 148.3 182.7 149 183.2 149.7 183.95 150.5 183.9 156.65 183.75 157.55 183.65 157.9 183.6 157.9 183.6 158.3 183.5 158.65 183.4 158.65 183.4 159.1 182.7 160.2 182.45 160.35 182.3 160.6 181.9 160.95 184.5 163.2 185.85 164.75 186.8 166.4 187.15 167.2 190.8 166.75 194.45 165.4 198.1 163.1 201.75 159.9 203.85 160.95 206.95 157.85 208.45 157.05 211.2 156.3 213.55 156.3 214.55 156.6 215.5 157.05 216.4 157.85 218.95 158.05 219.4 158.2 219.8 158.35 220.55 158.9 221 159.1 221.45 159.15 221.9 159.15 222.35 159.1 222.7 158.9 223.05 158.6 223.7 157.85 224.25 158.65 224.55 159 224.95 159.35 225.85 159.7 226.3 159.85 226.85 159.9 227.85 157.85 229 158.05 231.15 158.7 232.7 159.5 233.35 159.95 234.15 160.95 239.35 166.2 240.55 168.1 240.8 169 240.95 169.8 240.8 170.5 240.55 171.25 240.35 171.35 240 171.9 239.35 172.45 237.6 173.65 233.35 175.85 232.2 176.05 231.7 176.05 231.25 176.15 230.5 175.95 229.95 175.6 229.25 175.4 228.65 175.35 226.55 175.35 225.7 175.55 224.95 175.85 224.4 176.3 224 176.9 223.7 177.65 219.25 176 216.45 175.35 215.8 175.3 215.45 175.35 215.35 175.4 215.35 175.6 214.75 174.85 214.1 174.3 213.4 173.9 212.7 173.7 211.4 173.65 210.05 174.05 209.1 174.55 208.75 175.2 208.5 175.5 208.35 175.6 208.3 175.6 208.3 175.75 208.15 175.75 208.15 175.85 207.8 176.2 207.2 176.6 206.8 176.6 206.8 176.65 206.45 176.8 206 176.8 205.65 176.85 205.2 176.8 204.75 176.8 203.85 176.65 201.8 175.9 200.9 175.75 200.1 175.85 199.35 176 198.7 176.35 198.05 176.9 197.6 177.65 196.15 178.15 195.65 178.35 195.2 178.7 194.8 178.95 194.65 179.2 194.45 179.8 192.85 178.9 192.15 178.6 191.5 178.45 190.25 178.35 189.65 178.45 Q188 179.35 186.3 180.3 L184.5 180.8 183.95 180.85 183.4 181.25 182.6 182.15 182.35 182.6 182.1 182.95 181.9 183.6 181.9 184.15 181.95 184.25 182.05 184.6 182.2 185.25 182.2 185.8 182.1 186.25 182 186.4 181.95 186.4 181.95 186.55 181.75 186.7 181.65 186.85 181.4 186.9 181.25 187.05 180.8 187.05 179.8 213.25 180.15 214 180.4 214.9 180.3 216.85 179.35 219.1 177.7 221.6 180.8 224.75 177.7 226.8 179.8 236.25 180.8 245.65 181.1 245.45 181.75 245.35 182.05 245.4 182.25 245.4 182.45 245.5 182.65 245.65 182.9 245.85 183.05 246.3 183.1 246.95 183.05 247.3 183.05 247.75 182.95 248.75 181.9 247.7 181.35 248.65 180.9 250.25 180.8 250.9 181.9 252.95 181.35 253.35 180.7 254.25 180.4 255.05 180.55 255.7 180.8 256.05 182.35 259.15 182.85 261.5 182.9 262.35 182.7 263.85 182.6 264.2 182.55 264.25 182.55 264.65 182.35 265.45 180.8 268.65 181.25 269.6 181.25 269.65 181.65 270.45 181.75 270.8 181.75 270.9 181.95 271.25 182.1 272 182.1 272.4 182.2 272.55 182.2 273.05 182.05 273.5 181.9 273.85 181.1 274.75 179.5 277.2 179.1 277.8 178.75 278.75 178.75 279.1 175.65 281.15 174.9 281.95 174.55 282.15 174.5 282.25 174.05 282.45 172.85 282.5 166.9 281.4 164.4 280.4 163.85 280.1 163.25 279.6 162.4 278.75 161.95 277.65 161.8 276.55 162 275.95 148.45 261.3 148.65 258.65 148.95 257.7 149.5 257.15 150.9 256.5 152.1 255.8 152.55 255.3 152.75 255.05 152.95 254.9 153.7 254 155.75 256.05 156.5 256 157.35 255.85 159.1 255.25 163.05 252.95 165.15 233.05 164.2 231.4 163.55 229.9 163.2 228.35 163.05 226.8 163.2 225.15 163.55 223.6 164.2 222.1 165.15 220.55 163.7 216.9 162.35 209.8 161.7 193.35 161.4 191.25 161.15 190.6 161 190.25 160.15 189.45 157.4 187.45 156.2 187.1 155.75 187.1 144.25 190.25 143.75 190.05 143.35 190 142.05 190 141.65 190.1 139.8 190.9 138.35 191.9 135.85 194.55 134.8 195.5 133.75 196.2 132.7 196.7 130.55 197.05 129.5 196.85 128.55 196.5 127.55 196.7 125.85 197.5 124.55 198.55 123.65 199.85 123.35 200.65 122.3 199.65 121.7 199.9 121 200.3 120.95 200.55 119.15 199.65 102.45 204.85 101.5 205.35 100.9 205.9 100.45 206.4 100.35 207 99.5 206.45 97.45 205.4 96.2 205 95.1 204.85 92.4 203.75 91.1 202.7 90.6 202.1 90.2 201.4 89.9 200.65 91.95 194.4 93.1 192.95 94.35 191.75 95.7 190.8 96.4 190.45 98.75 189.85 100.3 188.85 101.8 187.2 103.45 185 104.2 184.2 105.75 183.15 107.3 182.7 108.15 182.6 108.95 182.7 109.8 182.9 122.3 176.65 124.9 174.75 126.5 173.55 126.95 172.75 127.5 172.1 129 170.7 129.6 170.5 130.65 170.35 134.85 166.2 137.15 163.25 137.75 162.05 137.95 161.45 138 160.95 149.5 152.6 161 145.25 167.25 135.9 168.1 133.55 168.25 132.8 168.35 131.4 168.25 130.1 167.2 127.65 166.25 126.45 165.15 125.45 155.75 127.5 155.75 128.55 152.05 128.8 150.6 129.1 149.5 129.65 147.85 130.85 Q147.05 131.3 146.3 131.7 L145.5 131.9 145.05 131.9 144.7 131.95 143.9 131.9 143.2 131.7 132.75 137.95 106.6 150.5 98.3 159.9 90.95 174.55 88.3 178.05 87.8 179.2 87.5 179.65 87 181.15 86.85 182.05 86.75 182.9 85.4 184.9 85.2 185.5 84.9 186 84.65 186.75 84.65 187.1 84.6 187.1 84.6 188 84.45 188.85 84.35 189.2 84.3 189.6 84.2 189.85 84.1 190.25 83.4 191 83.2 191.05 83 191.15 82.75 191.25 82.6 191.25 82.6 191.3 79.45 199.65 70.8 214.95 67.6 221.55 67.15 223.1 66.9 224.25 66.9 224.75 59.6 234.1 51.2 242.5 47.9 243.2 45.4 243.5 44.4 243.4 43.7 243.2 43.15 242.9 42.9 242.5 42.35 242.15 41.9 241.75 41 240.6 40.6 239.85 40 238.2 39.75 237.25 39.7 236.2 39.4 234.5 39.2 233.85 38.85 233.2 38.5 232.7 38.1 232.3 37.65 232.05 37.35 229.15 36.15 225.75 36.05 224.7 36.15 223.6 36.25 223.1 36.55 222.6 36.2 222.2 35.45 220.85 35.45 220.8 33.25 215.55 33.15 215.15 32.45 213.25 33.5 211 33.7 210.35 33.75 209.1 33.05 206.35 32.9 204.8 33.05 203.25 33.8 199.75 33.95 198 33.8 196.6 33.45 195.5 33.45 194.4 33.8 192.7 34.6 191.4 35.15 190.95 35.8 190.5 36.55 190.25 36.5 189.7 36.4 189.2 36.05 188.45 35.45 187.7 34.6 187.15 36.55 188.15 60.65 166.2 63.35 165.5 64.25 165.1 64.4 165.1 65.3 164.6 66.5 163.45 66.75 162.75 66.9 162.05 67.2 161 67.6 160.25 68.05 159.65 69.35 159.15 70.2 159.2 71.1 159.45 72.15 159.9 78.4 155.7 84.65 150.5 85.6 151.3 86 151.6 86.5 151.75 86.65 151.75 86.75 151.8 87.15 151.8 87.25 151.75 87.4 151.75 87.8 151.6 88.95 149.8 91.45 145.55 92.1 143.5 92.1 142.75 91.95 142.15 92.6 141.8 94.25 141.1 94.85 140.55 95.05 140.3 95.1 140.1 93.05 139 99.3 131.7 99.75 130.2 100.8 128.1 101.4 127.5 96.65 123.15 94.25 121.55 93.75 121.3 93.3 121.2 92.55 121.1 92.2 121.1 91.95 121.25 91.3 122.65 90.95 123.25 90.8 123.45 90.8 123.55 90.65 123.9 89.1 125.7 87 126.5 86.15 126.5 85.9 126.55 85.55 126.5 85.25 126.5 84.65 126.45 69 136.95 63.75 143.2 50.45 154.65 47.85 156.25 46.85 156.6 46 156.75 45.5 156.05 44.7 154.45 44.25 152.65 44.05 150.6 44.2 148.2 44.6 145.55 47.05 137.95 46.9 137.5 46.85 137.05 46.9 136.25 47.05 135.35 47.55 134.55 47.8 134 48.15 133.55 49.95 131.6 51.2 130.65 52.6 130.35 53.8 129.6 54.25 128.95 54.45 128.55 54.7 128.2 55.4 126.45 55.85 125.6 57.45 123.8 58.5 122.9 59.6 122.3 61 122.15 62.15 121.8 63.05 121.1 63.75 120.2 64.45 119.65 65.9 118.85 67.2 118.35 68.45 118.15 69 118.15 Q85.75 107.15 102.45 96.2 L102.45 95.1 104.55 97.2 105.05 96.1 106.5 94.4 108.25 93.1 110.5 92.25 111.85 92 119.15 87.8 120.6 87.7 121.75 87.5 122.25 87.35 122.4 87.2 122.65 87.15 123 86.9 123.35 86.75 124.35 85.85 124.85 85.55 125.4 85.4 126.5 85.35 126.95 85.4 127.55 85.7 128.05 84.75 128.35 84.3 128.8 84.1 129.65 83.75 130.65 83.6 130.65 84.7 132.75 83.6 136.9 83.6 137.95 82.3 140.4 80.5 143.35 79.45 146.6 79.2 148.45 79.45 149 78.8 150.2 77.7 151.85 76.65 152.3 76.4 153.7 76.1 154.05 76.1 154.75 76.35 155.1 76.65 155.75 77.35 159.95 74.25 160.4 73.7 160.95 73.4 161.4 73.25 162 73.15 162.45 73.25 163.05 73.4 163.55 73.7 164.1 74.25 165.2 73.4 165.35 73.15 165.4 72.8 165.4 72.6 165.3 72.35 165.15 72.1 170.4 72.1 171.1 71.6 172.4 70.95 173.45 70.65 174.2 70.75 174.55 71.05 176.35 70.65 176.65 70.65 178 70.3 178.45 70.2 179.95 69.55 180.55 69.2 180.75 69.05 181.05 68.9 181.4 68.45 181.6 68.1 181.7 68.05 182.1 67.1 182.2 65.95 181.9 64.8 164.1 62.75 163.1 63.15 161.9 63.55 160.35 63.9 149.9 64.75 148.45 64.8 130.65 67.9 123.35 72.1 115 74.25 112.5 73.95 111.25 74 110.3 74.25 109.5 74.9 109.3 75.55 109.25 75.9 109.35 76.35 109.8 77.35 106.05 78.05 103.45 78.35 99.5 81.75 97.75 82.85 96.15 83.6 95.1 82.55 91.95 84.7 92.05 83.8 92.5 82.5 93.5 81.25 93.85 80.7 96.05 78.8 98.3 77.35 111.85 73.15 123.35 69 125.4 66.9 126.95 67.1 127.7 67.05 128.55 66.85 130.1 66.05 131.75 64.8 131.75 64.75 132.6 64.75 133.5 64.6 133.8 64.5 134.15 64.45 134.45 64.3 134.8 64.25 135.55 63.55 135.65 63.3 135.75 63.15 135.8 62.9 135.8 62.75 148.45 62.75 149.65 61.8 150.1 61.35 150.5 61.15 150.75 60.7 150.65 60.6 155.75 60.6 163.05 58.55 163.85 58.5 164.65 58.3 166.4 57.7 170.4 55.4 183.95 52.3 186.7 53.35 186.9 53.35 187.6 53.55 189 53.6 191.8 52.8 194.85 52.35 199.65 52.3 214.25 50.15 219.5 54.35"/>
    <path stroke="none" fill="#CC3300" d="M151.15 5.45 L151.15 5.25 151.2 5.25 151.3 5.15 151.55 4.3 151.55 6.25 164.1 2.1 176.65 0 183.95 4.2 186.85 4.9 188.1 5.1 188.5 5.1 188.6 5.15 189.2 5.2 194.45 11.5 193.75 13.3 193.5 13.6 193.35 13.95 192.85 14.6 191.7 15.35 190.25 15.65 189.2 15.65 188.25 16.1 187.6 16.7 187.25 17.2 187.15 17.75 181.9 17.75 169.3 20.9 151.55 20.9 135.85 22.95 134.85 22.95 133.15 23.3 131.85 24.15 130.95 25.4 130.65 26.15 130.65 22.95 121.25 26.15 119.7 26.45 117.35 27.4 116.1 28.5 115.8 29 115.35 30 115.05 31.1 115 32.4 129.35 35.95 129.75 36 130.15 36.1 130.5 36.2 130.9 36.3 131.3 36.3 131.45 36.35 131.95 36.45 132.15 36.45 132.4 36.55 133.7 36.7 134.1 36.7 134.55 36.75 134.9 36.7 135.35 36.7 135.7 36.6 135.7 36.55 136.1 36.55 136.7 36.1 137.05 35.75 137.05 35.7 137.2 35.7 137.2 35.55 137.3 35.55 137.4 35.4 137.65 35.1 138 34.45 153.7 32.4 153.7 28.2 155.75 30.3 158.6 29.2 161 28.2 162.35 28.05 163.55 27.7 164.4 27 165.15 26.15 175.65 28.2 183.95 33.45 184.2 36 184.3 36.45 184.5 36.9 185 37.6 183.95 38.65 187.15 39.7 185.8 40.45 185.15 41.2 185 41.8 184.95 41.9 184.95 42.45 184.85 43.1 184.65 43.45 184.65 43.6 184.5 44.1 183.75 44.7 183.55 44.75 183.35 44.85 182.95 44.85 182.95 44.9 181.4 45.2 179 46.1 177.45 47.4 177 48.2 176.7 49.1 176.65 50.15 174.55 48.1 163.05 52.3 145.3 55.4 139.05 55.4 138.3 55.55 137.65 55.55 137.05 55.35 136.65 55.1 136.2 54.6 135.85 53.15 135.85 52.3 136.8 52.45 137 52.45 137.7 52.65 138.2 52.65 138.45 52.7 139 52.7 139.25 52.75 139.8 52.7 140.05 52.65 140.35 52.65 140.5 52.5 140.75 52.45 141.1 52.3 141.8 51.75 143.25 50.95 143.95 50.7 144.55 50.4 145.75 50.15 146.35 50.15 161 39.7 161.95 39.35 162.1 39.25 162.85 39.05 163.6 38.7 163.75 38.55 163.9 38.55 164.25 38.4 164.65 38 164.75 38 165.25 37.65 165.9 36.85 166.05 35.85 166 35.25 165.55 34.15 165.2 33.65 164.1 32.4 158.85 32.4 157.8 32.1 156.1 32 154.8 32.3 154.35 32.6 153.9 32.95 153.7 33.45 151.5 33.45 151.5 33.9 151.4 34.15 151.25 34.25 151.2 34.35 151.1 34.4 151.05 34.4 151.05 34.45 150.65 34.35 150.3 34.15 149.9 33.9 149.5 33.45 135.85 42.85 134.85 44.9 135.85 44.9 135.25 45.15 130.55 48.25 126.4 52.25 124.9 53 123.35 53.3 116.05 50.15 112.85 42.55 111.85 40.8 106.35 39.05 103.75 38.85 102.75 38.95 101.95 39.25 97.2 43.9 96.7 44.6 96.05 46.05 95.75 47.35 95.85 48.5 96.15 49.1 95.15 49.7 94.7 50.1 93.55 51.8 93.05 53.3 93.3 54.7 93.25 55.9 93.1 56.35 92.95 56.4 92.8 56.75 91.95 57.5 89.9 65.85 89.45 66.05 89 66.25 87.2 66.9 86.9 66.9 86.2 67.1 85.3 67.1 85.05 67.15 83.95 67.15 81.5 66.9 79.4 64.25 78.35 63.3 77.8 62.95 77.35 62.75 76.8 62.15 76.15 60.9 75.9 59.6 76.05 58.2 76.35 57.5 77.8 53.35 78.4 52.3 79.7 51.1 80.05 50.6 80.25 50.45 80.7 49.85 81.1 48.8 81.1 48.65 81.15 48.65 81.3 48.5 81.3 48.1 81.35 48.1 81.45 47.75 81.5 47.05 83.35 45.15 83.65 44.75 84.65 43.9 85.3 43.55 85.4 43.45 85.4 43.4 85.6 43.4 85.95 43.25 86.95 42.55 87.25 42.1 87.4 41.75 87.55 41.65 87.7 41.2 87.7 40.8 87.8 40.8 89.85 38.9 90.9 38.15 91.95 37.6 91.55 36.6 91.45 36.1 91.45 35.75 91.55 35 91.95 34.45 91.9 34.15 91.8 34 91.45 33.7 90.75 33.5 81.5 32.4 72.15 32.4 69.6 31.3 69.55 31.3 64.85 28.2 66 26.75 66.35 26.4 66.85 25.3 66.9 25.1 69 27.15 76.35 24.05 84.65 22.95 87.6 23.1 87.85 23.15 88.45 23 88.55 22.95 89.1 22.95 89.45 22.8 89.6 22.8 90.15 22.65 90.5 22.35 90.9 22.15 91 21.95 91.2 21.85 91.3 21.65 91.5 21.55 91.55 21.3 91.65 21.15 91.75 20.9 91.85 20.7 91.9 20.25 91.9 19.85 91.95 19.85 93.2 19.9 93.45 19.95 94.7 19.95 94.9 20 96.35 19.85 96.65 19.7 97.7 19.55 99.5 18.7 99.7 18.55 99.8 18.55 100.15 18.4 102.45 16.7 120.25 12.5 121.6 12.85 123.2 13.05 126.95 12.5 131.5 10.95 136.9 8.35 141.1 8.35 141.6 7.15 142.2 6.4 142.75 5.85 143.4 5.75 144.05 5.85 144.75 6.4 145.55 7.15 146.35 8.35 146.8 7.8 147.65 6.95 148.15 6.75 148.5 6.5 149.15 6.25 149.5 6.25 149.5 6.2 149.9 6.2 150.3 6.1 150.65 5.9 150.8 5.8 150.8 5.75 150.95 5.75 150.95 5.55 151.05 5.55 151.15 5.45"/>
  </g>
<g transform="translate(857.95,62.7)">
    <path stroke="none" fill="#CC3300" d="M173.75 183.45 L174.5 183.65 174.85 183.95 172.75 185.05 170.7 183.95 171.4 183.65 172.7 183.45 173.75 183.45"/>
    <path stroke="none" fill="#CC3300" d="M52.55 153.7 L50.5 152.65 38.95 158.35 37.05 159.8 35.5 161.8 34.2 164.15 33.2 167.1 31.9 174.25 31.7 180.85 32.1 181.15 32.45 181.55 32.75 182 32.9 182.65 33 184.15 32.7 186.1 33.8 186.85 34.4 187.15 35.05 187.35 36.4 187.4 37.1 187.35 37.95 187.15 40.1 185.1 41.6 183.2 42 182.25 42.25 181.35 42.25 180.55 42.1 179.8 50.5 168.35 52.55 161 52.55 153.7 M136.15 161.45 L135.15 163.1 128.85 170.35 126.5 172.4 124.65 173.5 123.9 174.25 122.7 175.75 121.9 177.3 121.7 178.1 121.55 179.8 121 180.05 120.05 180.95 118.95 183.1 117.7 186.85 117.35 187.4 117.3 187.6 116.8 188.4 115.65 189.5 114.2 190.3 114.4 191.8 113.95 193.35 112.8 194.9 111.1 196.55 110.55 197.25 109.9 198.65 109.6 199.95 109.75 201.2 110.05 201.8 109.75 202 109.55 202.35 109.25 203.25 109.05 205.9 108.95 206.15 108.5 207.45 106.9 210.1 106.75 211.4 106.8 212.7 107.2 215.35 107.95 218 110.8 223.5 114.05 227.75 118.4 232.05 120 231.65 120.85 231.5 122.65 231.5 125.75 232.05 127.6 232.8 127.8 232.8 129.35 233.1 130.75 232.8 130.85 232.7 130.85 232.65 131.05 232.65 131.4 232.45 133.15 231.15 134.1 230.3 134.8 229.35 135.35 228.4 135.6 227.25 135.65 226.7 135.65 226.4 135.7 226.15 135.5 224.95 135.4 224.6 135.35 224.5 135.35 224.3 135.15 223.75 135.15 223.65 135.6 223.65 135.75 223.55 136 223.5 136.7 222.9 136.9 222.45 136.9 222.25 137.05 221.9 137.15 221.25 137.3 219.5 137.75 217.35 138.3 216.4 139.3 208.05 140 205.5 140.05 203.25 139.85 202.2 139.45 201.3 138.95 200.45 138.3 199.65 143.5 186.1 142.7 185.05 142.25 184.1 141.95 183.15 141.9 182.35 141.95 181.6 142.25 180.95 142.7 180.3 143.5 179.8 145.6 162 144 160.6 142.55 159.7 141.15 159.2 139.85 159.15 138.55 159.4 137.95 159.7 136.75 160.8 136.15 161.45 M133.1 4.35 L135.4 8.1 136.75 12.2 137.25 16.75 130.85 25.55 128.85 27.95 124.65 31.8 120.55 34.5 119.85 36.25 119.6 36.55 119.45 36.65 119.4 36.65 119.4 36.8 118.95 37.35 118.35 37.65 117.75 37.8 116.35 37.65 83.9 66.9 74.5 76.35 75.45 77.55 76.45 78.55 78.4 79.95 79.25 80.35 80.1 80.6 80.95 80.6 80.95 80.55 81.35 80.55 81.85 80.5 89.15 78.4 96.45 75.3 109.05 74.25 121.55 83.65 126.8 89.9 106.2 99.5 104.05 100.7 98.9 105.25 97.5 106.9 96.45 108.75 89.15 116.05 83.9 124.45 83.65 125.15 83.6 125.95 83.65 126.7 84.2 128.2 85.25 129.85 86 130.7 89.9 134.1 90.85 135.3 91.2 135.9 95.7 135.95 96.4 135.75 96.7 135.75 99.85 135.1 103.55 133.35 105.25 132.1 106.9 130.7 106.9 128.55 128.85 106.6 142.5 100.35 152.95 104.55 153.95 104.3 155.1 104.45 156.3 104.75 158.9 106.05 160.3 107.05 163.35 109.75 165.45 116.05 166.55 117.3 167.8 118.1 168.45 118.3 169.15 118.35 169.85 118.3 170.7 118.1 171.65 117.1 173.75 115.75 175.9 115.3 176.95 115.35 178 115.6 179.05 116.05 183.25 110.8 183.95 110.25 185.4 109.45 186.65 109 187.85 108.75 188.45 108.75 201 102.45 210.4 99.3 218.75 98.3 219.35 98.1 220 98.05 222.2 98.05 223.2 98.25 224 98.55 224.35 98.7 225.1 99.25 226.1 100.35 227.5 100.9 229.15 102 229.55 102.5 230.25 103.5 231.3 104.35 232.35 105.1 233.85 105.55 234.45 105.6 240.7 112.95 246.95 119.2 247.9 120.65 247.95 120.8 248.8 122 250.1 124.45 251.4 125.4 252.2 126.45 252.4 126.9 252.45 127.5 252.4 127.95 252.2 128.55 252.65 129.5 252.65 129.55 252.8 129.9 253 130.4 253.05 130.75 253.15 131.1 253.15 131.3 253.25 131.4 253.3 131.75 253.3 132.4 253.5 133.6 253.75 134.05 254 134.35 254.4 134.65 254.8 134.8 255.35 134.9 255.35 137.3 255.7 141.3 256.3 143.6 256.75 144.75 257.05 145.2 257.7 145.9 258.5 146.4 259.55 153.7 259.55 162 261.05 166.7 261.55 169.5 261.55 169.9 261.6 170.4 261.6 170.95 261.85 172.35 263.75 177.7 263.75 214.3 264.75 216.4 264.25 218.85 263.65 225.5 263.2 228.35 261.6 233.1 260.6 241.5 257.4 248.8 256.9 251.85 253.5 258.4 252.2 260.3 240.7 270.75 232.35 271.95 231.4 272 230.45 271.95 229.7 271.75 228.25 270.95 227.6 270.35 227.15 269.7 209.35 258.2 199.95 247.75 193.7 238.35 188.2 234.4 184.6 232.4 183.8 232.1 183.25 232.05 186.4 227.85 186.55 227.05 186.6 225.6 186.55 224.95 186.4 224.3 185.75 223.15 185.3 222.65 185.6 222.15 186 221.65 187.15 220.8 187.8 220.35 190.55 219.55 190.55 219.5 191.45 219.5 191.85 219.35 192.35 219.3 192.45 219.2 192.45 219.15 192.65 219.15 193 219 193.1 218.9 193.1 218.85 193.3 218.85 193.65 218.7 194.05 218.25 194.05 218.05 194.1 218.05 194.25 217.95 194.4 217.7 194.45 217.35 194.6 217.05 194.65 216.7 194.65 216.55 194.7 216.4 198.9 204.9 198.9 193.4 195.8 189.1 195.05 187.8 193.8 185.15 192.8 181.35 192.75 180.2 193.15 176.7 193.6 175.6 194.7 173.5 195.75 163.1 195.4 159.7 195 158.3 194.45 157.05 193.7 155.95 192.8 155 191.75 154.25 190.55 153.7 184.1 158.1 183.5 158.65 182.9 159 182 159.8 181.7 160.15 181.4 160.35 181.15 160.8 181.15 161 180.55 161.55 180.25 161.9 180 162.35 179.35 163.35 176.95 168.45 175.9 171.45 174.8 172.15 174.65 172.15 174.3 172.35 173.8 172.45 172.75 168.35 174 167.6 174.15 167.4 174.4 167.2 174.8 166.75 175 166.15 175.05 165.55 174.85 164.15 193.7 141.15 194.95 141.3 197.1 141.3 197.8 141.15 198.1 141.15 Q198.55 140.95 198.95 140.7 L199.5 140.35 199.7 140.3 199.85 140.15 200 140 200.35 139.7 200.65 139.35 201 139.05 201.2 139.05 202 139.2 221.9 144.25 222.2 145.85 222.15 147.7 221.05 151.8 218.45 156.55 214.6 162 214.25 162.9 214.1 163.15 214.05 163.5 212.45 166.95 211.5 168.7 206.2 179.8 206.8 180.8 208.9 183 214 186.6 220.65 190.2 223.95 192.6 226.3 195.2 227.15 196.6 227.75 198.05 228.15 199.65 229 200.2 229.7 200.85 230.05 201.5 230.15 201.85 230.2 202.25 230.05 203 229.7 203.9 226.1 208.65 224.2 210.65 222.45 211.8 221.6 212.1 220.85 212.25 209.55 220.3 205.65 222.55 204.2 223.25 203.55 223.5 Q203.3 223.6 203.1 223.75 L194.7 230 194.95 233.9 195.45 235.7 195.9 236.4 196.3 236.9 210.4 247.75 214 249.3 216.05 249.75 223.95 250.85 224.5 250.3 227.3 247.8 230.25 245.7 232 244.05 233.1 242.5 233.6 240.9 233.4 239.35 234.7 238.65 235.05 238.3 235.05 238.25 235.25 238.25 235.7 237.75 236.3 236.6 236.45 235.9 236.55 234.35 237 232.3 237.65 231.05 238.05 230.45 238.6 230 241.8 220.55 242.2 202.55 242.35 200.95 242.6 199.95 242.8 199.65 242.8 168.35 242 165.4 241.6 161.15 241.25 159.65 240.9 159 240.55 158.55 240.15 158.1 239.65 157.85 239.85 156.4 239.9 154.95 239.75 151.8 239.6 151.1 239.6 150.95 239.5 150.1 238.6 146.45 238.5 146.15 238.05 144.5 236.95 141.5 236.9 141.25 236.55 140.2 234.5 135.65 229.2 125.45 229.25 125.2 229.25 125 229.2 124.9 229.2 124.75 229.1 124.45 227.9 122.55 226.15 120.5 221.9 116.05 221.35 115.75 220.2 115.3 218.55 114.9 211.1 114.05 202 113.95 186.4 123.35 186.1 123.35 185.75 123.55 185.15 123.75 184.5 124.15 163.35 135.9 163.55 136.9 163.55 139.25 163.35 140.55 162.55 143.3 161.25 146.4 160.5 147.6 159.6 150.05 159.35 152.4 159.45 153.6 159.95 155.15 160.25 155.75 158.9 159.3 158.35 161.45 158.1 163.25 158.1 164.15 157.6 166.95 156.05 171.45 156.05 175.65 156.35 177 156.3 178.2 156.1 178.65 156 178.7 155.8 179.05 155 179.8 155 201.8 154.05 202.75 153.4 203.8 153.05 204.85 152.75 207.35 152.4 208.5 151.7 209.4 150.8 210.1 150.75 210.2 150.55 217.2 150.5 217.25 150.5 218.95 150.4 219.65 150.35 219.8 150.35 220.3 150.2 220.9 150.2 221.45 150 222.2 149.85 222.45 149.8 222.65 150.45 224.8 150.5 227.1 149.9 229.5 148.75 232.05 147.95 233.3 146.9 235.75 146.45 237.55 146.3 239.3 146.45 240.9 146.6 241.5 141.4 248.8 140.75 250 140.25 250.7 140.1 251 139.7 251.35 139.35 251.75 138.55 252.4 138.35 252.4 137.55 252.8 136.45 253.05 135.6 253.05 135.35 253.1 135 253.05 134.7 253.05 134.1 253 132.45 253.15 131.65 253.1 130.9 252.95 130.1 252.5 128.55 251.5 126.2 249.4 123.05 247.25 121.55 246.7 118.1 243.1 102.35 229.85 99.6 226.6 98.4 224.5 97.6 222.25 97.4 221.15 97.4 217.7 98 215.4 98.55 214.3 99.6 207 99.6 205.9 99.95 204.2 100.75 202.9 101.3 202.45 Q101.65 202.25 101.95 202 L102.7 201.8 104.3 198.05 104.65 196.65 104.85 195.45 105.65 193.5 114.2 176.65 131 153.7 149.8 134.9 149.8 122.3 148.9 118.9 148.55 118.05 147.45 116 145.25 113.65 143.9 112.65 142.5 111.85 140.1 111.7 137.8 111.95 135.5 112.45 131.05 114.6 128.85 116.15 109.05 134.9 103.8 142.2 96.45 149.5 90.2 156.85 86 164.15 79.75 173.5 74.5 183.95 73.45 193.4 74.5 201.8 74.45 201.8 74.45 202.65 74.35 203.55 74.2 203.85 74.15 204.2 74.05 204.5 74 204.85 73.3 205.6 73.05 205.7 72.85 205.8 72.65 205.85 72.45 205.85 72.45 205.9 72.4 206.05 71.9 215.05 71.2 217.9 70.8 218.85 70.35 219.55 70.35 239.35 69.25 260.3 66.1 262.6 64.55 263.2 63.7 263.4 63 263.45 42.1 241.5 32.7 237.3 17.05 255.05 15.4 255.1 13.75 254.95 10.2 253.75 8.3 252.65 2.4 247.75 0.75 241.5 0.1 238 0 236.3 0.05 235.55 0.1 235.3 0.3 235.2 0.35 234.7 0.8 233.65 1.85 232.05 2.2 231.35 6.55 224.75 18.05 218.5 20.25 214.7 20.25 214.55 20.65 213.7 21.7 210.85 22.35 206.85 22.25 202.8 20.4 200.15 18.65 195.9 18.35 194.7 17.15 187.75 17.05 182.95 16.5 179.95 16 173.5 22.25 166.2 29.55 158.9 29.6 158 29.85 157.2 30.25 156.3 30.85 155.45 31.15 154.95 32.9 153 34.8 151.55 36.05 150.2 49.8 137.95 58.8 132.3 59.65 132 60.35 131.65 63.2 130.8 65.15 130.7 66.75 129.9 67.3 129.55 69.8 127.5 75.6 120.25 75.8 118.1 76.1 117.05 76.6 116.05 77.4 114.9 77.5 114.5 77.5 114.35 77.6 114.35 77.7 114.25 77.9 113.65 77.95 112.3 77.65 110.8 76.35 109 75.6 108.35 74.2 107.7 73.75 107.55 72.1 107.4 70.9 107.5 70.35 107.7 65.35 108.75 62.75 109 60.65 108.9 59.9 108.75 57.75 110.25 56.7 110.65 55.7 110.8 54.2 111.35 52.5 112.45 52.1 112.95 51.5 113.95 39 110.8 38.05 104.6 37.8 101.05 37.95 98 38.35 95.35 39 93.2 40 91.5 41.3 90.35 42.1 89.9 52.55 80.5 73.45 59.6 75.3 58.55 76.8 57.45 77.95 56.4 77.95 56.25 78 56.25 78.35 55.9 78.7 55.4 83.9 50.2 84.85 48.85 86.8 46.6 89.5 44.1 90.35 43.45 91.2 42.9 91.75 40.9 92.5 39.2 93.4 37.75 94.4 36.6 96.95 32.85 98.15 30.8 98.55 30.35 102.7 23 104.2 20.95 104.5 19.95 104.55 19.45 104.55 19.05 104.45 18.6 104 17.65 103.3 16.8 101.7 15.7 101.25 15.5 100 15.4 99.1 15.45 97.3 15.95 95.8 16.65 94.4 17.75 92.35 19.95 90.45 21.4 89.5 21.85 88.7 22.05 87.85 22.05 87.1 21.95 73.45 36.6 60.95 51.2 59.05 53.3 58.35 54.35 57.8 55.4 50.5 55.4 48.3 53 47.3 51.65 45.65 48.45 44.35 44.8 43.5 40.65 42.7 30.7 43.2 21.95 45.25 21.95 51.5 32.4 52.1 32.35 53.9 32.35 54.15 32.3 56.1 32.3 57.05 32.15 59.6 32.1 60.85 31.9 61.35 31.8 61.85 31.8 62.55 31.55 62.75 31.45 63 31.4 71.85 28.5 73.8 27.5 74.35 27.25 74.75 26.9 75.1 26.65 75.6 26.15 89.15 18.85 114.2 0 129.9 1.05 133.1 4.35"/>
  </g>
</g>
</svg>